<?xml version="1.0" encoding="UTF-8" standalone="no"?>
<svg xmlns:dc="http://purl.org/dc/elements/1.1/" xmlns:cc="http://creativecommons.org/ns#" xmlns:rdf="http://www.w3.org/1999/02/22-rdf-syntax-ns#" xmlns:svg="http://www.w3.org/2000/svg" xmlns="http://www.w3.org/2000/svg" viewBox="0 0 370.66666 378.66666" height="378.66666" width="370.66666" xml:space="preserve" id="svg2" version="1.1">
  <metadata id="metadata8">
    <rdf:RDF>
      <cc:Work rdf:about="">
        <dc:format>
          image/svg+xml
        </dc:format>
        <dc:type rdf:resource="http://purl.org/dc/dcmitype/StillImage"/>
      </cc:Work>
    </rdf:RDF>
  </metadata>
  <defs id="defs6"/>
  <g transform="matrix(1.3333333,0,0,-1.3333333,0,378.66667)" id="g10">
    <g transform="scale(0.1)" id="g12">
      <path id="path16" style="fill:#000000;fill-opacity:1;fill-rule:evenodd;stroke:none" d="m 1310.82,1778.24 -81.99,-3.51 -121.02,-15 -114.49,-21.49 -108.519,-30 -100.973,-36.01 -88.519,-41.49 -78.981,-47.5 -63.519,-53.98 -48.469,-56.02 -32.5,-60 -18.52,-61.48 v -61.02 l 16.989,-60 31.019,-58.98 51.481,-57.5 61.992,-53.01 77.5,-46.99 24.539,-14.53 198.98,99.02 -74.492,42.5 -57.5,43.98 -45,48.01 -31.019,48.99 -15.508,51.52 -1.481,55.51 12.5,51.99 27.5,50.98 41.989,49.02 57.5,45 68.011,40 79.489,36.48 86.531,30 96.48,22 101.99,18.51 24.49,1.99 3.01,5.51 16.02,28.01 4.49,9.49 m 213.01,-33.51 -14.03,24.02 -3.47,7.5 93.47,-9.02 117.5,-17.5 115,-25.98 105.51,-34.02 59.03,-25 -96.02,29.02 -105.51,22.5 -111.99,17.5 -114.49,10.51 -45,0.47 m 286.48,-832.968 76.53,21.476 98.98,34.492 90,42.5 78.98,47.5 65.51,53.52 45,57.5 34.03,58.01 18.47,61.48 v 61.49 l -18.47,60.5 -31.02,59.03 -46.48,57.5 -63.52,52.5 -79.49,48.47 -26.02,13.52 -195.51,-100 71.02,-42.5 57.5,-44.02 46.48,-47.5 31.02,-50 15.51,-52.5 3.47,-52.97 -15.46,-52.03 -28.01,-50 -41.99,-50 -54.54,-45 -69.49,-40.47 -21.99,-10 c -12.34,-38.01 -25.82,-68.869 -40.51,-92.498 m -811.478,8.976 -21.023,3.012 -106.989,23.48 -98.011,28 59.031,-25.5 108.469,-33.48 70.511,-16.02 c -4.34,7 -8.32,13.829 -11.988,20.508"/>
         </g>
  </g>
</svg>
