<?xml version="1.0" encoding="UTF-8" standalone="no"?>
<svg
   xmlns:dc="http://purl.org/dc/elements/1.1/"
   xmlns:cc="http://creativecommons.org/ns#"
   xmlns:rdf="http://www.w3.org/1999/02/22-rdf-syntax-ns#"
   xmlns:svg="http://www.w3.org/2000/svg"
   xmlns="http://www.w3.org/2000/svg"
   viewBox="0 0 370.66666 378.66666"
   height="378.66666"
   width="370.66666"
   xml:space="preserve"
   id="svg2"
   version="1.1"><metadata
     id="metadata8"><rdf:RDF><cc:Work
         rdf:about=""><dc:format>image/svg+xml</dc:format><dc:type
           rdf:resource="http://purl.org/dc/dcmitype/StillImage" /></cc:Work></rdf:RDF></metadata><defs
     id="defs6" /><g
     transform="matrix(1.3333333,0,0,-1.3333333,0,378.66667)"
     id="g10"><g
       transform="scale(0.1)"
       id="g12"><path
         id="path14"
         style="fill:#263d8c;fill-opacity:1;fill-rule:evenodd;stroke:none"
         d="m 1862.81,1226.76 -12.5,42.5 -15.97,42.5 -22.04,41.99 -26.48,42.5 -30,44.49 -36.48,41.99 -34.03,38.52 -28.47,31.99 -26.02,32.5 -26.02,31.99 -21.99,32.5 -20.51,30 -20,30.51 -15.97,30 -2.5,3.99 -71.53,0.5 h -45 l -40.46,-3 -79.54,-7 -12.96,-24.49 -20,-30.51 -20.51,-30 -21.99,-32.5 -26.02,-31.99 -26.48,-32.5 -28.01,-31.99 -34.49,-38.52 -36.02,-41.99 -30.51,-44.49 -25.97,-42.5 -22.039,-41.99 -16.481,-42.5 -11.988,-42.5 -8.012,-44.03 -1.992,-42.5 1.992,-45.97 6.02,-44.53 10,-42.5 15.969,-42 18.523,-40.5 23.978,-38.48 28.52,-36.02 31.99,-34.492 18.01,-16.008 16.48,-15.98 18.01,-14.02 18.01,-13.992 20,-12.5 18.47,-10 20,-10 14.03,-6.988 0.51,3.48 1.48,22.032 2.5,21.988 3.52,21.48 5.46,21.532 7.5,16.476 1.02,18.012 -1.02,18.48 -0.97,18.508 v 29.492 l 0.97,30 1.02,29.032 2.5,28.976 3.01,28.992 4.49,28.51 5,28.01 6.02,28.01 -4.54,1.48 -4.49,2.5 -5,3.01 -4.49,3.48 -4.49,3 -3.01,4.03 -2.5,5.47 -1.02,5 -10,1.52 -10.46,1.99 -10,1.49 -10.51,2.03 -10,2.5 -10.51,1.99 -20,5 -3.52,2.5 -1.99,3.98 v 4.5 l 1.02,4.53 2.5,2.97 3.47,2.03 4.54,0.97 3.98,0.51 h 8.98 l 8.52,-1.01 8.52,-0.47 7.96,-1.53 9.03,-1.99 8.01,-1.48 8.47,-1.53 8.01,-1.48 1.48,0.51 0.51,0.97 v 4.03 l -1.48,0.47 -1.02,0.5 -1.99,1.53 -1.02,0.47 -5.46,3.51 -6.02,4.49 -4.49,5 -6.02,5 -4.49,5 -5,5 -5,4.5 -5.51,4.53 -5,7.5 -8.98,15 -3.52,7.97 -3.47,7.5 -4.03,8 -4.49,7.5 -3.98,7 -2.04,12.5 2.04,11.52 3.98,10.51 6.48,9.49 7.5,10 6.53,10 6.48,10 4.03,10.51 6.99,6.99 3.47,8.48 1.53,8.51 0.97,9.49 v 9.03 l 2.04,8.98 2.96,8.52 5.51,7.5 5,4.49 2.5,4.49 1.99,6.02 1.02,5.47 1.48,6.01 2.5,5 3.01,5 5.51,3.52 7.5,3.47 8.01,1.53 10,1.99 10,0.98 10,1.01 9.49,0.51 h 9.49 l 8.52,0.51 0.97,6.48 -3.47,6.99 -1.53,6.53 5,2.97 3.52,1.52 4.49,1.99 3.52,2.5 4.49,2.5 3.52,3.01 4.49,2.5 3.47,2.5 4.03,1.99 h 0.51 l -5.51,11.02 -1.53,2.5 -2.5,3.98 -3.47,6.02 -4.49,6.99 -3.01,8.01 -1.99,8.47 v 10 l 3.47,10 1.53,9.03 v 1.99 l 1.48,4.49 3.01,6.02 5,7.5 7.5,7.97 11.48,8 15.51,7 21.02,5.5 6.48,0.51 h 13.52 l 5.97,-0.51 6.53,-0.5 3.98,-1.49 3.52,-0.51 h 0.97 l 2.5,-0.97 3.52,-1.53 3.98,-1.99 4.03,-1.48 3.98,-2.5 4.49,-2.03 3.52,-2 2.5,-1.48 -3.52,-4.02 -4.49,-3.48 -3.98,-4.02 -2.5,-2.97 -1.53,-3.01 1.02,-3.01 1.48,-3.98 v -5.51 l -0.97,-1.99 v -2.5 l 0.97,-1.53 2.5,-3 3.52,-3.99 2.5,-3.51 1.99,-2 0.51,-1.99 v -6.01 l -2.5,-2 -3.01,-0.97 -2.5,-2.5 0.51,-3.01 -0.51,-1.52 -0.51,-0.47 -0.97,-1.53 v -0.97 l 1.48,-1.53 1.02,-0.5 0.97,-0.98 -0.97,-1.52 -0.51,-0.98 -1.02,-1.99 -0.97,-1.53 0.97,-1.48 1.53,-1.52 v -0.98 l -0.51,-0.51 -1.02,-1.48 -0.97,-1.02 -0.51,-1.48 -0.51,-2.03 1.02,-0.47 0.97,-0.51 1.02,-0.51 0.51,-0.51 0.97,-10 -9.49,-5 -13.52,-8.98 -0.46,-0.51 13.98,-1.01 2.5,-4.5 3.01,-3.47 3.98,-3.52 4.03,-3.01 4.49,-2.5 3.47,-3 4.03,-2.97 3.01,-3.52 2.5,-7.5 1.48,-8.01 3.52,-6.48 7.5,-3.01 10,-2.5 10.46,-2.5 9.54,-3.01 10,-3.47 9.49,-4.53 8.98,-5 9.03,-5.47 8.47,-7.03 8.01,-15.47 2.5,-18.01 0.51,-19.02 v -31.49 l -0.51,-6.99 v -6.99 l 0.51,-6.53 2.5,-6.48 3.98,-4.49 6.02,-4.53 v -8.48 l -3.01,-7.5 -2.5,-7.5 1.02,-8.52 3.47,-3.98 3.01,-4.49 2.5,-3.52 2.5,-4.49 1.02,-5 1.48,-4.02 -1.48,-5 -2.04,-5 -2.96,-8.48 -3.01,-9.49 -0.51,-9.53 3.52,-8.99 v -11.01 l -2.5,-10.47 -5,-10.51 -5.51,-9.49 -2.5,-6.02 0.97,-6.01 2.5,-3.99 4.03,-4.49 4.49,-3.52 5,-4.49 3.01,-5 0.97,-5.51 7.5,-1.48 7.5,-1.02 8.01,-1.99 7.5,-1.01 7.5,-2 7.5,-0.97 7.5,-1.53 8.01,-0.97 3.98,5 6.02,1.99 5.51,1.99 h 5.97 l 7.04,-0.51 5.97,-1.48 6.02,-1.52 5.97,-1.49 11.53,-6.48 v -13.01 l -1.02,-11.99 -1.99,-12.5 -0.51,-13.01 6.02,0.98 5.51,-0.98 6.48,-1.02 5.51,-1.48 5.51,-1.02 5.97,-1.99 5.51,-1.01 6.48,-0.47 3.01,11.99 3.52,12.5 3.47,12.5 0.51,13.48 7.5,-4.5 6.53,-5.5 5.97,-5.98 4.03,-6.99 2.96,-7.5 3.01,-8.52 1.53,-8.01 1.48,-8.47 -1.02,-10 -2.96,-9.53 -5,-7.97 -7.5,-6.02 -10.51,-1.48 -10,0.97 -9.03,1.53 -10,2.5 -9.49,2.97 -8.98,2.5 -10,2.03 -10,1.48 -2.5,-3.98 -1.53,-3.52 -0.97,-3.98 v -4.03 l -8.01,0.51 -7.5,1.02 -8.01,1.48 -7.5,1.49 -13.98,7.03 -5.51,5.47 -4.49,7.03 -3.01,2.5 -3.52,0.47 -4.49,-0.47 -4.49,0.47 -5,1.52 -5.51,0.51 -5,0.97 -5,2 -5,2.03 -4.49,2.5 -3.98,3.47 -3.01,4.5 -0.51,3.51 0.51,4.49 2.5,2.5 3.01,1.02 h 5 l 5,-0.51 5,-1.01 5,-1.49 5,-1.99 5,-1.02 4.49,-0.5 h 5 l 1.99,1.52 v 1.99 l -1.02,1.99 0.51,1.53 -4.49,2.5 -5,1.99 -5,1.48 -5,1.02 -5.51,1.48 -5,1.02 -5.51,0.51 -5,1.48 -6.48,1.02 -2.5,-4.03 -3.01,-4.49 -2.5,-4.49 -3.98,-3.52 -3.01,-4.49 -11.02,-11.01 0.51,-5 1.99,-3.48 1.53,-4.49 1.48,-4.53 6.02,-65 3.98,-65 0.51,-65.468 v -65 l 1.99,-11.532 1.53,-10 2.96,-10.5 3.52,-10.98 1.02,-4.488 52.96,26.476 18.52,12.5 18.01,13.992 18.01,14.02 17.96,15.98 18.52,16.008 31.99,34.492 28.52,36.02 21.99,38.48 20,40.5 13.98,42 12.5,42.5 6.02,44.53 1.99,45.97 -1.99,42.5 -8.01,44.03 m -374.49,-508.01 -1.48,27.5 -3.01,25.98 -6.02,25 -8.01,22.5 -7.96,22.5 -7.5,23 -7.5,23.52 -6.53,23.012 -6.48,23.468 -4.49,24.032 -4.54,23.976 -6.48,-13.008 -4.49,-13 -4.49,-13.48 -4.54,-13.52 -5,-13 -5,-13.992 -5.46,-13.008 -6.53,-11.992 -5,-15 -5.51,-13.976 -6.48,-14.032 -5.51,-13.98 -5,-15 -3.47,-15 -1.53,-15.512 1.99,-16.476 -1.99,-25.512 -3.47,-24.488 -6.53,-24.532 -0.51,-2 21.02,-1.992 24.49,-1.988 h 48.01 l 22.5,1.988 21.99,1.992 11.99,2.5 -0.46,7 -1.02,26.52 m -135.51,1061.48 123.01,-0.97 31.02,-3.01 -11.02,23.01 -11.99,31.99 -14.03,34.49 -11.99,36.02 -12.5,40.47 -11.99,42.5 -11.99,44.02 -11.99,46.48 -12.04,-46.48 -11.99,-44.02 -12.5,-42.5 -11.99,-40.47 -11.99,-36.02 -14.03,-34.49 -13.98,-31.99 -10,-21.02 41.99,1.99 m -81.99,-503 27.5,-40 -1.02,-2.5 -1.48,-2.5 -1.02,-5 -1.48,3 -1.48,3.52 -2.5,3.01 -3.01,2.5 -2.5,2.5 -3.52,2.5 -3.47,1.48 -3.01,1.99 -2.5,1.02 -2.5,0.98 -2.5,1.01 -2.5,0.51 0.97,6.99 1.53,6.02 1.99,6.99 2.5,5.98" /><path
         id="path16"
         style="fill:#000000;fill-opacity:1;fill-rule:evenodd;stroke:none"
         d="m 1310.82,1778.24 -81.99,-3.51 -121.02,-15 -114.49,-21.49 -108.519,-30 -100.973,-36.01 -88.519,-41.49 -78.981,-47.5 -63.519,-53.98 -48.469,-56.02 -32.5,-60 -18.52,-61.48 v -61.02 l 16.989,-60 31.019,-58.98 51.481,-57.5 61.992,-53.01 77.5,-46.99 24.539,-14.53 198.98,99.02 -74.492,42.5 -57.5,43.98 -45,48.01 -31.019,48.99 -15.508,51.52 -1.481,55.51 12.5,51.99 27.5,50.98 41.989,49.02 57.5,45 68.011,40 79.489,36.48 86.531,30 96.48,22 101.99,18.51 24.49,1.99 3.01,5.51 16.02,28.01 4.49,9.49 m 213.01,-33.51 -14.03,24.02 -3.47,7.5 93.47,-9.02 117.5,-17.5 115,-25.98 105.51,-34.02 59.03,-25 -96.02,29.02 -105.51,22.5 -111.99,17.5 -114.49,10.51 -45,0.47 m 286.48,-832.968 76.53,21.476 98.98,34.492 90,42.5 78.98,47.5 65.51,53.52 45,57.5 34.03,58.01 18.47,61.48 v 61.49 l -18.47,60.5 -31.02,59.03 -46.48,57.5 -63.52,52.5 -79.49,48.47 -26.02,13.52 -195.51,-100 71.02,-42.5 57.5,-44.02 46.48,-47.5 31.02,-50 15.51,-52.5 3.47,-52.97 -15.46,-52.03 -28.01,-50 -41.99,-50 -54.54,-45 -69.49,-40.47 -21.99,-10 c -12.34,-38.01 -25.82,-68.869 -40.51,-92.498 m -811.478,8.976 -21.023,3.012 -106.989,23.48 -98.011,28 59.031,-25.5 108.469,-33.48 70.511,-16.02 c -4.34,7 -8.32,13.829 -11.988,20.508" /><path
         id="path18"
         style="fill:#283d8e;fill-opacity:1;fill-rule:nonzero;stroke:none"
         d="m 251.641,2529.84 c 13.437,-17.3 20.308,-33.43 20.629,-48.43 0.308,-15 -5.36,-27.03 -17.04,-36.1 -6.011,-4.69 -11.91,-7.61 -17.652,-8.75 -5.816,-1.05 -12.699,-0.86 -20.629,0.63 2.621,8.94 2.352,18.79 -0.777,29.53 -3.121,10.7 -8.203,20.62 -15.313,29.69 -5.629,7.26 -12.5,13.67 -20.629,19.21 -8.121,5.51 -17.031,9.15 -26.71,10.94 -9.77,1.88 -19.93,1.6 -30.469,-0.78 -10.629,-2.42 -21.332,-7.81 -32.1916,-16.25 -11.1289,-8.67 -19.5703,-18.51 -25.3086,-29.53 -5.711,-11.05 -8.6719,-22.34 -8.9102,-33.91 -0.3125,-11.56 1.7188,-23.36 6.0899,-35.31 4.3789,-11.87 10.789,-23.2 19.2187,-33.9 16.1719,-20.75 34.1798,-33.4 54.0708,-37.97 19.8,-4.61 40.582,-5.39 62.339,-2.35 21.801,3.13 44.653,7.74 68.59,13.91 23.949,6.25 47.891,9.53 71.879,9.84 24.063,0.31 47.973,-4.33 71.723,-13.9 23.828,-9.61 46.949,-28.83 69.371,-57.66 20.199,-25.94 33.129,-51.48 38.75,-76.56 5.629,-25 5.777,-48.56 0.469,-70.63 -5.313,-22.11 -15,-42.81 -29.063,-62.18 -14.058,-19.3 -30.59,-36.33 -49.527,-51.1 -16.879,-13.12 -35.082,-24.18 -54.531,-33.12 -19.379,-8.87 -38.829,-14.14 -58.29,-15.78 -19.492,-1.57 -38.351,1.09 -56.558,7.96 -18.203,6.96 -34.57,19.73 -49.063,38.28 -8.437,10.71 -15.468,22.9 -21.089,36.57 -5.629,13.63 -9.071,27.22 -10.321,40.78 -1.25,13.63 0.321,26.8 4.692,39.53 4.3,12.7 12.187,23.59 23.75,32.66 9.488,7.38 19.648,11.09 30.468,11.09 10.743,0 24.219,-5.08 40.469,-15.16 -10.117,-8.55 -16.957,-17.42 -20.629,-26.56 -3.629,-9.06 -5.187,-17.93 -4.679,-26.56 0.429,-8.67 2.421,-16.8 5.929,-24.38 3.563,-7.61 7.5,-14.21 11.879,-19.84 8.942,-11.56 19.371,-19.69 31.25,-24.37 11.953,-4.61 24.223,-6.72 36.723,-6.41 12.5,0.39 24.449,2.81 35.929,7.19 11.45,4.45 21.45,10.04 30,16.72 19.891,15.5 30.469,35.82 31.719,60.93 1.25,25.2 -9.219,52.03 -31.398,80.47 -18.75,24.14 -38.281,39.61 -58.602,46.41 -20.23,6.76 -41.168,9.37 -62.808,7.81 -21.563,-1.56 -43.121,-5.23 -64.692,-10.94 -21.558,-5.62 -43.121,-9.29 -64.679,-10.94 -21.641,-1.56 -42.899,1.45 -63.75,9.07 -20.8208,7.69 -40.9809,24.1 -60.4692,49.22 -16.7617,21.44 -27.8516,43.2 -33.28127,65.31 -5.39844,22.19 -6.44922,43.36 -3.1289,63.59 3.23828,20.31 10.62887,39.26 22.18747,56.88 11.5625,17.58 25.7813,32.97 42.6524,46.09 7.3086,5.7 17.9687,12.66 32.0395,20.78 14.058,8.21 29.609,14.1 46.558,17.66 16.992,3.51 34.531,2.81 52.652,-2.19 18.051,-5 34.77,-17.42 50.161,-37.19 z" /><path
         id="path20"
         style="fill:#283d8e;fill-opacity:1;fill-rule:nonzero;stroke:none"
         d="m 718.359,2661.84 112.813,-255 c 2.269,-5 5.308,-11.18 9.058,-18.44 3.829,-7.19 8.481,-13.91 13.911,-20.16 5.507,-6.25 11.64,-11.05 18.437,-14.37 6.871,-3.25 14.301,-3.09 22.344,0.47 24.457,10.82 30.348,46.01 17.656,105.62 l 27.813,12.19 c 8.441,-33.87 12.418,-61.8 12.031,-83.75 -0.434,-21.99 -3.281,-39.85 -8.594,-53.6 -5.308,-13.75 -12.348,-24.21 -21.098,-31.4 -8.75,-7.11 -17.14,-12.42 -25.152,-15.94 -11.558,-5.12 -22.348,-7.5 -32.348,-7.19 -10,0.32 -19.332,2.43 -27.96,6.41 -8.68,3.94 -16.571,9.41 -23.75,16.41 -7.192,6.95 -13.872,14.45 -20,22.5 1.32,-28.68 -3.25,-52.04 -13.75,-70.16 -10.43,-18.05 -24.18,-30.78 -41.25,-38.28 -14.5,-6.49 -29.141,-10.59 -43.911,-12.35 -14.808,-1.79 -29.019,-0.15 -42.66,4.85 -13.551,5.08 -26.359,13.79 -38.429,26.09 -12,12.27 -22.7,29.22 -32.192,50.78 l -116.558,263.28 75,33.13 112.808,-255 c 10.82,-24.49 22.813,-40 35.942,-46.56 13.121,-6.49 26.171,-6.84 39.21,-1.1 6.961,3.13 13.129,8.13 18.442,15 5.387,6.88 9.258,15 11.558,24.38 2.391,9.37 3.129,19.84 2.192,31.4 -0.942,11.57 -4.301,23.83 -10,36.88 l -106.563,240.78 z" /><path
         id="path22"
         style="fill:#283d8e;fill-opacity:1;fill-rule:nonzero;stroke:none"
         d="m 973.949,2763.95 11.871,-62.04 c 8.2,12.82 18.52,23.83 30.94,33.13 12.38,9.26 27.69,15.62 45.94,19.06 18.82,3.63 37.07,2.97 54.68,-2.03 17.7,-4.92 34.14,-14.37 49.38,-28.44 15.19,-14.06 28.63,-32.97 40.31,-56.72 11.64,-23.67 20.78,-52.65 27.34,-87.03 12.7,-67.11 10,-121.56 -8.12,-163.43 -18.13,-41.8 -48.13,-66.68 -90,-74.69 -17.74,-3.36 -33.56,-2.89 -47.5,1.4 -13.87,4.26 -26.84,11.61 -38.91,22.04 l 40.94,-215 -77.5,-35.63 -120.621,633.91 z m 70.621,-67.5 c -11.87,-2.31 -21.87,-7.66 -30,-16.1 -8.12,-8.44 -14.3,-19.49 -18.441,-33.12 l 46.101,-241.72 c 9.37,-8.24 19.14,-13.6 29.37,-16.1 10.31,-2.5 20,-2.89 29.06,-1.09 13.44,2.58 24.42,9.14 32.97,19.69 8.52,10.51 15.04,23.83 19.53,40 4.46,16.13 6.72,34.45 6.72,55 0,20.62 -2.15,42.22 -6.4,64.84 -5.32,27.89 -12.35,50.63 -21.1,68.13 -8.67,17.57 -18.08,31.13 -28.28,40.62 -10.12,9.45 -20.43,15.55 -30.94,18.28 -10.54,2.7 -20.07,3.21 -28.59,1.57 z" /><path
         id="path24"
         style="fill:#283d8e;fill-opacity:1;fill-rule:nonzero;stroke:none"
         d="m 1579.84,2674.49 c -0.54,-38.24 -16.72,-70 -48.59,-95.31 -31.8,-25.23 -75.63,-40.39 -131.56,-45.47 1.87,-21.87 5.54,-39.76 11.09,-53.59 5.51,-13.75 12.34,-24.65 20.47,-32.66 8.13,-8.05 17.5,-13.67 28.13,-16.87 10.62,-3.13 21.64,-4.81 33.12,-5 26.25,-0.43 50.94,6.01 74.06,19.37 23.13,13.32 42.07,35.98 56.88,67.97 l 26.25,-0.31 c -7.42,-20.12 -17.58,-39.22 -30.47,-57.35 -12.93,-18.12 -27.97,-34.02 -45.16,-47.65 -17.11,-13.67 -35.54,-24.46 -55.31,-32.35 -19.8,-7.89 -40.08,-11.72 -60.78,-11.4 -19.18,0.31 -37.62,3.86 -55.31,10.62 -17.74,6.88 -33.28,17.89 -46.72,33.13 -13.44,15.31 -24.22,35.04 -32.35,59.22 -8.04,24.14 -11.79,53.75 -11.25,88.75 0.39,22.89 3.36,47.73 8.91,74.53 5.63,26.76 14.73,51.48 27.34,74.22 12.7,22.69 29.14,41.56 49.38,56.56 20.19,15 45.04,22.26 74.53,21.87 13.63,-0.23 26.88,-1.95 39.69,-5.15 12.81,-3.13 24.29,-8.75 34.53,-16.88 10.31,-8.12 18.48,-19.06 24.53,-32.81 6.13,-13.75 8.98,-31.56 8.59,-53.44 z m -180.46,-108.75 c 38.94,5.39 69.92,18.6 92.96,39.53 23.01,20.94 34.73,46.96 35.16,78.13 0.31,20.82 -3.05,35.78 -10,44.84 -6.88,9.14 -16.88,13.83 -30,14.06 -14.3,0.2 -26.84,-5.11 -37.66,-15.93 -10.74,-10.75 -19.8,-24.65 -27.18,-41.72 -7.43,-17.11 -13.09,-36.17 -17.04,-57.19 -3.86,-20.94 -5.93,-41.52 -6.24,-61.72 z" /><path
         id="path26"
         style="fill:#283d8e;fill-opacity:1;fill-rule:nonzero;stroke:none"
         d="m 1780,2744.34 -13.44,-67.5 c 8.32,8.43 16.45,16.28 24.38,23.59 7.89,7.38 16.25,13.52 25,18.44 8.83,5 18.16,8.59 27.97,10.78 9.88,2.19 20.47,2.11 31.71,-0.16 18.33,-3.67 30.83,-11.01 37.5,-22.03 6.76,-11.05 8.79,-23.28 6.1,-36.72 -1.56,-8.04 -4.22,-14.49 -7.97,-19.37 -3.75,-4.81 -7.89,-8.44 -12.34,-10.94 -4.38,-2.42 -8.87,-3.87 -13.44,-4.38 -4.49,-0.54 -8.4,-0.46 -11.72,0.16 -4.8,0.94 -8.52,2.74 -11.09,5.47 -2.5,2.7 -4.96,5.55 -7.35,8.59 -2.42,3.01 -5.27,5.98 -8.59,8.91 -3.36,3.01 -7.93,5.08 -13.75,6.25 -12.42,2.5 -25.12,0.55 -38.13,-5.78 -12.93,-6.37 -24.96,-13.52 -36.09,-21.41 l -58.91,-295.94 -80.46,16.1 80.15,402.03 z" /><path
         id="path28"
         style="fill:#283d8e;fill-opacity:1;fill-rule:nonzero;stroke:none"
         d="m 2102.73,2654.53 -93.12,-262.65 c -1.88,-5.24 -3.91,-11.8 -6.09,-19.69 -2.19,-7.81 -3.52,-15.9 -3.91,-24.22 -0.31,-8.24 0.86,-15.94 3.59,-23.13 2.82,-7.11 8.32,-12.11 16.57,-15 25.19,-8.94 53.63,12.54 85.31,64.54 l 28.75,-10.16 c -17.19,-30.43 -33.52,-53.44 -48.91,-69.06 -15.43,-15.71 -29.8,-26.72 -43.12,-32.97 -13.25,-6.33 -25.55,-9.1 -36.88,-8.28 -11.25,0.86 -21.01,2.73 -29.22,5.62 -18.04,6.37 -31.48,15 -40.31,25.94 -8.87,10.94 -14.77,23.01 -17.66,36.25 -2.81,13.2 -3.12,26.95 -0.93,41.25 2.18,14.26 5.47,27.54 9.84,39.84 l 98.91,279.07 z m -51.71,143.75 c 4.88,13.83 14.06,24.14 27.5,30.94 13.51,6.76 27.5,7.58 41.87,2.5 13.83,-4.92 24.1,-14.34 30.78,-28.28 6.64,-13.87 7.54,-27.74 2.66,-41.56 -5.24,-14.5 -14.69,-24.81 -28.44,-30.94 -13.75,-6.17 -27.58,-6.8 -41.41,-1.88 -14.37,5.08 -24.8,14.26 -31.25,27.5 -6.36,13.32 -6.95,27.23 -1.71,41.72 z" /><path
         id="path30"
         style="fill:#283d8e;fill-opacity:1;fill-rule:nonzero;stroke:none"
         d="m 2388.01,2525.98 c 18.63,-10.32 33.04,-22.03 43.28,-35.16 10.19,-13.12 16.76,-27.19 19.69,-42.19 2.89,-15 3,-30.86 0.31,-47.5 -2.74,-16.68 -7.19,-33.67 -13.44,-50.93 l 4.22,-2.35 c 20.08,-11.17 40.7,-17.3 61.88,-18.44 21.25,-1.17 41.32,1.25 60.31,7.19 v -25.47 c -18.05,-10 -40.28,-14.29 -66.72,-12.81 -26.37,1.56 -51.56,6.56 -75.63,15 -2.73,-4.92 -5.27,-9.8 -7.65,-14.69 -2.42,-4.92 -5.08,-9.96 -7.97,-15.15 -32.62,-58.83 -68.99,-98.99 -109.06,-120.47 -40,-21.56 -79.38,-21.6 -118.13,-0.16 -15.74,8.75 -30.08,20.43 -42.97,35 -12.81,14.61 -21.99,32.15 -27.5,52.66 -5.43,20.51 -6.25,43.47 -2.5,68.9 3.75,25.51 14.26,53.83 31.57,85 11.64,21.02 26.25,41.96 43.75,62.82 17.5,20.93 37.03,38.2 58.59,51.87 21.64,13.63 45.04,21.92 70.16,24.85 25.07,2.89 51.01,-3.09 77.81,-17.97 z M 2222.23,2210.2 c 25.31,-14.07 50.86,-11.88 76.72,6.56 25.93,18.44 51.64,50.62 77.18,96.56 1.57,2.89 3.13,5.78 4.69,8.59 1.64,2.89 3.01,5.94 4.06,9.07 -13.36,8.63 -21.56,17.22 -24.68,25.78 -3.05,8.63 -1.1,19.22 5.78,31.72 6.13,10.93 12.85,17.34 20.15,19.22 7.27,1.87 15.82,0.39 25.63,-4.38 3.63,19.77 2.81,35.35 -2.5,46.72 -5.24,11.44 -13.36,20.23 -24.38,26.41 -14.8,8.2 -30.08,10.23 -45.78,6.09 -15.74,-4.18 -31.09,-12.11 -46.09,-23.75 -14.92,-11.68 -28.91,-25.94 -42.03,-42.81 -13.05,-16.8 -24.46,-34.03 -34.22,-51.72 -13.05,-23.44 -21.49,-43.75 -25.31,-60.94 -3.87,-17.19 -4.85,-31.99 -2.97,-44.37 1.87,-12.27 5.93,-22.35 12.18,-30.16 6.25,-7.89 13.44,-14.1 21.57,-18.59 z" /><path
         id="path32"
         style="fill:#283d8e;fill-opacity:1;fill-rule:nonzero;stroke:none"
         d="m 2679.1,2320.62 -44.53,-52.65 c 11.33,3.32 22.27,6.29 32.81,8.91 10.51,2.57 20.78,3.9 30.78,3.9 10.08,0.08 20,-1.33 29.69,-4.22 9.77,-2.81 19.06,-7.93 27.81,-15.31 14.26,-12.11 21.61,-24.61 22.04,-37.5 0.5,-12.93 -3.68,-24.65 -12.5,-35.16 -5.24,-6.17 -10.71,-10.43 -16.41,-12.81 -5.63,-2.42 -10.94,-3.67 -15.94,-3.75 -5,0 -9.65,0.86 -13.9,2.66 -4.3,1.76 -7.66,3.67 -10.16,5.78 -3.75,3.2 -6.09,6.6 -7.03,10.15 -0.86,3.64 -1.64,7.39 -2.35,11.26 -0.62,3.82 -1.71,7.85 -3.28,12.03 -1.48,4.14 -4.49,8.12 -9.06,11.87 -9.61,8.13 -21.64,12.54 -36.09,13.28 -14.38,0.71 -28.36,0.35 -41.88,-1.09 l -194.69,-230.47 -62.65,52.81 264.69,313.13 z" /><path
         id="path34"
         style="fill:#283f8e;fill-opacity:1;fill-rule:nonzero;stroke:none"
         d="M 712.379,448.32 V 281.762 c 14.383,0 26.723,3.008 37.031,9.058 10.32,6.02 18.68,13.789 25.16,23.282 6.559,9.449 11.41,20.16 14.532,32.027 3.128,11.961 4.687,23.832 4.687,35.633 0,10.386 -1.09,21.129 -3.277,32.187 -2.114,11.133 -6.563,21.321 -13.442,30.621 -6.871,9.379 -16.679,17.071 -29.371,23.129 -12.738,6.012 -29.687,9.063 -50.937,9.063 -14.383,0 -27.973,-2.274 -40.782,-6.723 -12.742,-4.379 -23.71,-10.738 -32.968,-19.059 -9.301,-8.359 -16.641,-18.679 -22.032,-30.941 -5.429,-12.187 -8.128,-26.25 -8.128,-42.187 0,-10.231 0.777,-18.75 2.347,-25.622 1.641,-6.8 3.629,-12.46 5.93,-17.031 2.269,-4.609 4.57,-8.129 6.883,-10.629 2.258,-2.422 4.097,-4.14 5.468,-5.16 -18.359,0 -32.781,4.57 -43.281,13.75 -10.429,9.141 -15.629,24.379 -15.629,45.629 0,15.621 4.059,30.352 12.192,44.223 8.199,13.937 19.218,26.25 32.968,36.867 13.75,10.633 29.571,18.992 47.5,25.16 18,6.25 36.95,9.371 56.872,9.371 21.558,0 40.82,-2.73 57.808,-8.121 16.961,-5.309 31.18,-12.809 42.66,-22.5 11.45,-9.687 20.2,-20.898 26.25,-33.59 6.02,-12.738 9.059,-26.41 9.059,-41.097 0,-13.75 -2.457,-27.93 -7.34,-42.5 -4.918,-14.493 -12.309,-27.622 -22.187,-39.372 -9.801,-11.8 -21.993,-21.531 -36.563,-29.218 -14.488,-7.621 -31.367,-11.41 -50.629,-11.41 H 712.379 V 126.91 H 659.57 v 314.07 z m 200.242,21.559 V 205.352 c 0,-3.364 0.149,-7.461 0.469,-12.34 0.308,-4.922 1.172,-9.774 2.648,-14.532 1.453,-4.691 3.641,-8.75 6.563,-12.191 3.008,-3.359 7.109,-5 12.347,-5 16.012,0 27.813,17.731 35.313,53.281 h 18.129 c -3.68,-20.55 -8.25,-36.8 -13.75,-48.75 -5.551,-11.871 -11.41,-20.941 -17.66,-27.191 -6.168,-6.168 -12.5,-10.109 -19.059,-11.867 -6.57,-1.883 -12.461,-2.813 -17.66,-2.813 -11.481,0 -20.781,2.18 -27.973,6.563 -7.187,4.449 -12.929,10.148 -17.187,17.027 -4.18,6.871 -7.102,14.531 -8.75,22.973 -1.672,8.508 -2.5,16.718 -2.5,24.527 v 267.973 z" /><path
         id="path36"
         style="fill:#283f8e;fill-opacity:1;fill-rule:nonzero;stroke:none"
         d="M 1134.96,371.91 V 205.352 c 0,-3.364 0.16,-7.461 0.47,-12.34 0.31,-4.922 1.17,-9.774 2.66,-14.532 1.56,-4.691 3.79,-8.75 6.71,-12.191 2.9,-3.359 6.96,-5 12.19,-5 16.02,0 27.81,17.731 35.31,53.281 h 18.13 c -3.55,-20.55 -8.13,-36.8 -13.75,-48.75 -5.55,-11.871 -11.41,-20.941 -17.66,-27.191 -6.17,-6.168 -12.5,-10.109 -19.06,-11.867 -6.56,-1.883 -12.46,-2.813 -17.66,-2.813 -7.5,0 -13.98,1.321 -19.37,3.903 -5.31,2.578 -9.84,6.019 -13.59,10.308 -3.75,4.262 -6.8,9.141 -9.07,14.692 -2.3,5.628 -4.14,11.328 -5.47,17.187 -6.25,-16.059 -14.45,-27.769 -24.53,-35.16 -10.11,-7.297 -20.74,-10.93 -31.87,-10.93 -9.49,0 -18.52,1.321 -27.03,3.903 -8.44,2.578 -15.78,6.918 -22.03,12.968 -6.18,6.02 -11.059,13.828 -14.692,23.442 -3.558,9.687 -5.308,21.558 -5.308,35.617 V 371.91 h 49.06 V 205.352 c 0,-16.051 2.73,-27.422 8.28,-34.063 5.51,-6.68 12.54,-10 21.09,-10 4.57,0 9.14,1.172 13.75,3.59 4.57,2.5 8.64,5.98 12.19,10.473 3.63,4.57 6.6,10.16 8.91,16.718 2.26,6.559 3.43,14.059 3.43,22.5 v 157.34 z" /><path
         id="path38"
         style="fill:#283f8e;fill-opacity:1;fill-rule:nonzero;stroke:none"
         d="m 1240.43,371.91 v -33.75 c 8.44,15.629 17.38,25.551 26.87,29.852 9.46,4.258 18.48,6.398 27.04,6.398 8.43,0 15.82,-1.172 22.18,-3.43 6.45,-2.308 11.92,-5.429 16.41,-9.378 4.57,-3.872 8.44,-8.442 11.56,-13.75 3.13,-5.231 5.67,-10.903 7.66,-17.032 4.57,9.77 9.3,17.5 14.22,23.129 4.88,5.699 9.76,10.153 14.68,13.281 4.89,3.122 9.69,5.071 14.38,5.93 4.77,0.82 9.14,1.25 13.12,1.25 14.69,0 26.49,-2.808 35.47,-8.43 8.95,-5.55 15.71,-12.621 20.32,-21.25 4.57,-8.679 7.57,-18.128 9.06,-28.441 1.44,-10.309 2.19,-20.238 2.19,-29.687 0,-5.864 -0.16,-12.301 -0.47,-19.372 -0.32,-7 -0.63,-14.179 -0.94,-21.57 -0.31,-7.301 -0.7,-14.64 -1.09,-22.031 -0.32,-7.297 -0.47,-14.059 -0.47,-20.309 0,-2.621 0.15,-6.332 0.47,-11.09 0.39,-4.691 1.25,-9.339 2.5,-13.91 1.32,-4.609 3.47,-8.59 6.4,-12.031 2.89,-3.359 7.11,-5 12.66,-5 7.58,0 14.41,4.223 20.47,12.66 6.01,8.512 10.97,22.071 14.84,40.621 h 18.13 c -3.56,-20.55 -8.13,-36.8 -13.75,-48.75 -5.55,-11.871 -11.41,-20.941 -17.66,-27.191 -6.17,-6.168 -12.34,-10.109 -18.59,-11.867 -6.18,-1.883 -11.84,-2.813 -17.04,-2.813 -10.54,0 -19.37,2.031 -26.56,6.09 -7.19,4.141 -13.08,9.609 -17.65,16.41 -4.61,6.871 -7.93,14.883 -10,24.063 -2.11,9.136 -3.13,18.629 -3.13,28.437 0,2.891 0.04,8.352 0.16,16.403 0.19,8.007 0.35,16.558 0.47,25.628 0.19,9.141 0.35,17.809 0.46,25.93 0.2,8.211 0.32,13.988 0.32,17.352 0,10.386 -0.86,19.058 -2.5,25.937 -1.57,6.871 -3.87,12.223 -6.88,16.09 -2.93,3.941 -6.25,6.723 -10,8.281 -3.75,1.641 -7.77,2.5 -12.03,2.5 -10.12,0 -18.36,-4.058 -24.69,-12.191 -6.36,-8.117 -10.86,-21.828 -13.43,-41.09 V 126.91 h -49.07 v 163.602 c 0,5.937 -0.27,11.636 -0.78,17.187 -0.43,5.5 -1.64,10.461 -3.59,14.84 -1.99,4.449 -4.81,8.012 -8.44,10.621 -3.55,2.578 -8.4,3.91 -14.53,3.91 -10.55,0 -18.52,-4.34 -23.91,-12.968 -5.31,-8.672 -10.27,-22.114 -14.84,-40.313 V 126.91 h -49.06 v 245 z" /><path
         id="path40"
         style="fill:#283f8e;fill-opacity:1;fill-rule:nonzero;stroke:none"
         d="m 1531.56,463.012 49.06,6.867 v -116.09 c 5.51,5.512 12.04,10.043 19.54,13.59 7.57,3.641 16.6,5.473 27.03,5.473 8.83,0 17.97,-1.563 27.34,-4.692 9.45,-3.039 18.28,-8.512 26.41,-16.398 8.2,-7.813 14.92,-18.602 20.15,-32.352 5.32,-13.672 7.97,-31.09 7.97,-52.34 0,-18.672 -2.26,-36.64 -6.72,-53.91 -4.37,-17.301 -11.09,-32.57 -20.15,-45.781 -8.99,-13.238 -20.16,-23.828 -33.6,-31.719 -13.36,-7.808 -28.98,-11.711 -46.87,-11.711 -10.12,0 -19.53,1.563 -28.28,4.68 -8.67,3.133 -16.1,8.172 -22.35,15.16 -6.17,7.07 -11.05,16.41 -14.68,27.973 -3.56,11.558 -5.32,25.82 -5.32,42.808 z M 1665.47,255.82 c 0,12.7 -1.17,24.571 -3.44,35.629 -2.3,11.133 -5.7,20.852 -10.15,29.211 -4.38,8.32 -9.77,14.852 -16.1,19.539 -6.37,4.762 -13.67,7.18 -21.87,7.18 -6.49,0 -12.5,-1.559 -18.13,-4.68 -5.55,-3.051 -10.58,-7 -15.16,-11.879 V 201.91 c 0,-29.371 9.61,-44.058 28.91,-44.058 9.14,0 17.23,2.66 24.22,7.968 7.07,5.391 12.97,12.7 17.66,21.879 4.76,9.141 8.32,19.571 10.62,31.25 2.27,11.75 3.44,24.063 3.44,36.871 z" /><path
         id="path42"
         style="fill:#283f8e;fill-opacity:1;fill-rule:nonzero;stroke:none"
         d="M 1785.43,371.91 V 205.352 c 0,-3.364 0.16,-7.461 0.47,-12.34 0.31,-4.922 1.17,-9.774 2.65,-14.532 1.45,-4.691 3.64,-8.75 6.57,-12.191 3,-3.359 7.11,-5 12.34,-5 16.02,0 27.81,17.731 35.31,53.281 h 18.13 c -3.67,-20.55 -8.24,-36.8 -13.75,-48.75 -5.55,-11.871 -11.41,-20.941 -17.66,-27.191 -6.17,-6.168 -12.5,-10.109 -19.06,-11.867 -6.56,-1.883 -12.46,-2.813 -17.66,-2.813 -11.48,0 -20.78,2.18 -27.97,6.563 -7.18,4.449 -12.92,10.148 -17.18,17.027 -4.18,6.871 -7.11,14.531 -8.75,22.973 -1.68,8.508 -2.5,16.718 -2.5,24.527 V 371.91 Z m -57.81,70.629 c 0,8.75 3.04,16.41 9.22,22.973 6.25,6.558 13.94,9.84 23.12,9.84 8.83,0 16.49,-3.282 22.97,-9.84 6.56,-6.563 9.84,-14.223 9.84,-22.973 0,-9.18 -3.28,-16.879 -9.84,-23.129 -6.48,-6.172 -14.14,-9.211 -22.97,-9.211 -9.18,0 -16.87,3.039 -23.12,9.211 -6.18,6.25 -9.22,13.949 -9.22,23.129 z" /><path
         id="path44"
         style="fill:#283f8e;fill-opacity:1;fill-rule:nonzero;stroke:none"
         d="m 1891.21,371.91 v -37.18 c 4.88,8.75 9.84,15.821 14.84,21.25 5.08,5.391 10.24,9.411 15.47,12.032 5.2,2.578 10.16,4.289 14.85,5.148 4.76,0.82 9.29,1.25 13.59,1.25 14.69,0 26.49,-2.808 35.47,-8.43 9.06,-5.55 15.86,-12.621 20.47,-21.25 4.57,-8.679 7.58,-18.128 9.06,-28.441 1.45,-10.309 2.19,-20.238 2.19,-29.687 0,-5.864 -0.16,-12.301 -0.47,-19.372 -0.31,-7 -0.7,-14.179 -1.09,-21.57 -0.32,-7.301 -0.63,-14.64 -0.94,-22.031 -0.31,-7.297 -0.47,-14.059 -0.47,-20.309 0,-2.621 0.16,-6.332 0.47,-11.09 0.31,-4.691 1.09,-9.339 2.34,-13.91 1.33,-4.609 3.48,-8.59 6.41,-12.031 3.01,-3.359 7.26,-5 12.81,-5 7.5,0 14.26,4.223 20.31,12.66 6.02,8.512 11.02,22.071 15,40.621 h 18.13 c -3.67,-20.55 -8.24,-36.8 -13.75,-48.75 -5.55,-11.871 -11.41,-20.941 -17.66,-27.191 -6.17,-6.168 -12.34,-10.109 -18.59,-11.867 -6.25,-1.883 -11.99,-2.813 -17.19,-2.813 -10.43,0 -19.22,2.031 -26.41,6.09 -7.18,4.141 -13.08,9.609 -17.65,16.41 -4.61,6.871 -7.97,14.883 -10.16,24.063 -2.11,9.136 -3.12,18.629 -3.12,28.437 0,2.891 0.08,8.352 0.31,16.403 0.19,8.007 0.35,16.558 0.47,25.628 0.19,9.141 0.35,17.809 0.47,25.93 0.19,8.211 0.31,13.988 0.31,17.352 0,10.386 -0.86,19.058 -2.5,25.937 -1.68,6.871 -3.98,12.223 -6.88,16.09 -2.92,3.941 -6.25,6.723 -10,8.281 -3.75,1.641 -7.77,2.5 -12.03,2.5 -10.11,0 -18.86,-4.058 -26.25,-12.191 -7.3,-8.117 -13.24,-21.828 -17.81,-41.09 V 126.91 h -49.06 v 245 z" /><path
         id="path46"
         style="fill:#283f8e;fill-opacity:1;fill-rule:nonzero;stroke:none"
         d="M 2251.64,371.91 V 88.1602 c 0,-15.3086 -1.64,-28.2813 -4.84,-38.8985 -3.25,-10.6328 -7.74,-19.2617 -13.44,-25.9414 -5.74,-6.7617 -12.31,-11.6015 -19.69,-14.53124 -7.3,-2.89062 -15.08,-4.3789 -23.28,-4.3789 -16.25,0 -28.98,4.6914 -38.12,14.07034 -9.18,9.289 -13.75,20.5781 -13.75,33.8984 0,8.5625 1.87,16.25 5.62,23.1328 3.75,6.8672 8.63,13.1992 14.69,18.8985 6.01,5.6288 12.89,10.7108 20.62,15.1598 7.7,4.379 15.47,8.2 23.28,11.41 v 42.18 c -6.25,-8.43 -14.02,-15.461 -23.28,-21.09 -9.29,-5.55 -19.8,-8.281 -31.56,-8.281 -9.8,0 -19.69,1.871 -29.69,5.621 -10,3.75 -19.02,9.852 -27.03,18.289 -7.93,8.512 -14.45,19.68 -19.53,33.43 -5.12,13.75 -7.66,30.391 -7.66,50 0,14.691 1.72,29.851 5.16,45.473 3.44,15.699 8.91,30.039 16.41,42.968 7.5,12.891 17.11,23.59 28.9,32.032 11.76,8.519 25.98,12.808 42.66,12.808 3.94,0 8.12,-0.43 12.5,-1.25 4.37,-0.859 8.59,-2.262 12.66,-4.211 4.14,-2 8,-4.687 11.56,-8.129 3.63,-3.359 6.6,-7.5 8.9,-12.5 v 23.59 z m -91.56,-200.93 c 4.88,0 9.84,1.29 14.84,3.899 5.08,2.582 9.69,6.172 13.75,10.781 4.14,4.57 7.54,9.93 10.16,16.102 2.58,6.25 3.9,12.968 3.9,20.148 v 104.379 c -2.3,5.313 -5.85,10.16 -10.62,14.531 -4.69,4.379 -10.78,6.559 -18.28,6.559 -10.55,0 -19.53,-3.359 -27.03,-10 -7.5,-6.68 -13.56,-15.109 -18.13,-25.309 -4.61,-10.121 -7.93,-21.211 -10,-33.281 -2.11,-12.109 -3.12,-23.519 -3.12,-34.219 0,-26.48 3.79,-45.39 11.4,-56.718 7.7,-11.25 18.75,-16.872 33.13,-16.872 z m 21.09,-141.1011 c 8.83,0 14.61,3.4024 17.35,10.1602 2.81,6.6797 4.21,15.6992 4.21,27.0312 v 34.3787 c -16.36,-7.4998 -27.96,-14.8904 -34.84,-22.1873 -6.87,-7.3828 -10.31,-15.6719 -10.31,-24.8515 0,-7.5 2.03,-13.4297 6.09,-17.8086 4.14,-4.4532 10,-6.7227 17.5,-6.7227 z" /></g></g></svg>