<svg version="1.2" xmlns="http://www.w3.org/2000/svg" viewBox="0 0 1388 1569" width="1388" height="1569">
	<title>logo (2)-svg</title>
	<style>
		.s0 { fill: #cf000e } 
	</style>
	<g id="Layer">
		<path id="Layer" fill-rule="evenodd" class="s0" d="m1382.5 1523.5c12.7 19.3-1.6 44.6-25.1 44.6h-301.4c-34 0-65.6-16.9-83.9-44.8l-392.9-567.3h-221.3v575.8c0 20-16.7 36.3-37.3 36.3h-283.3c-20.6 0-37.3-16.3-37.3-36.3v-1495.1c0-20.1 16.7-36.3 37.3-36.3h574c405.9 0 636 128.3 636 477.8 0 349.5-206.4 418.9-281.1 444.8zm-493.1-1045.3c0-199-144.4-229.1-318-229.1h-213.6v458.1h213.6c173.6 0 318-30.1 318-229z"/>
	</g>
</svg>