<?xml version="1.0" encoding="UTF-8" standalone="no"?>
<svg
   xmlns:dc="http://purl.org/dc/elements/1.1/"
   xmlns:cc="http://creativecommons.org/ns#"
   xmlns:rdf="http://www.w3.org/1999/02/22-rdf-syntax-ns#"
   xmlns:svg="http://www.w3.org/2000/svg"
   xmlns="http://www.w3.org/2000/svg"
   viewBox="0 0 474.26666 474.26666"
   height="474.26666"
   width="474.26666"
   xml:space="preserve"
   id="svg2"
   version="1.1"><metadata
     id="metadata8"><rdf:RDF><cc:Work
         rdf:about=""><dc:format>image/svg+xml</dc:format><dc:type
           rdf:resource="http://purl.org/dc/dcmitype/StillImage" /></cc:Work></rdf:RDF></metadata><defs
     id="defs6" /><g
     transform="matrix(1.3333333,0,0,-1.3333333,0,474.26667)"
     id="g10"><g
       transform="scale(0.1)"
       id="g12"><path
         id="path14"
         style="fill:#b4bbc3;fill-opacity:1;fill-rule:nonzero;stroke:none"
         d="m 1778.52,195.281 c -873,0 -1583.243,710.239 -1583.243,1583.239 0,873.01 710.243,1583.25 1583.243,1583.25 873.01,0 1583.25,-710.24 1583.25,-1583.25 0,-873 -710.24,-1583.239 -1583.25,-1583.239 z m 0,3258.999 c -226.16,0 -445.63,-44.33 -652.32,-131.76 C 926.637,3238.12 747.441,3117.31 593.59,2963.46 439.742,2809.61 318.93,2630.41 234.52,2430.84 147.102,2224.16 102.773,2004.69 102.773,1778.52 c 0,-226.15 44.329,-445.63 131.747,-652.31 C 318.938,926.629 439.746,747.441 593.59,593.602 747.445,439.738 926.641,318.93 1126.2,234.52 c 206.7,-87.418 426.17,-131.739 652.32,-131.739 226.16,0 445.63,44.321 652.32,131.75 199.57,84.399 378.76,205.207 532.61,359.071 153.85,153.839 274.66,333.027 359.07,532.608 87.42,206.68 131.75,426.16 131.75,652.31 0,226.17 -44.33,445.64 -131.75,652.32 -84.4,199.56 -205.21,378.76 -359.07,532.62 -153.85,153.85 -333.04,274.66 -532.61,359.06 -206.68,87.43 -426.16,131.76 -652.32,131.76 z M 1778.52,0 C 1538.54,0 1305.6,47.0508 1086.17,139.859 874.352,229.461 684.176,357.66 520.914,520.918 357.668,684.16 229.457,874.34 139.863,1086.17 47.0547,1305.6 0,1538.54 0,1778.52 c 0,239.99 47.0547,472.94 139.863,692.36 89.59,211.82 217.797,402 381.051,565.25 163.262,163.26 353.438,291.47 565.246,381.05 219.43,92.82 452.37,139.87 692.36,139.87 240,0 472.94,-47.05 692.36,-139.87 211.82,-89.58 401.99,-217.79 565.25,-381.05 163.26,-163.26 291.46,-353.44 381.05,-565.25 92.81,-219.42 139.87,-452.36 139.87,-692.36 0,-239.98 -47.06,-472.93 -139.87,-692.35 C 3327.59,874.352 3199.38,684.172 3036.13,520.918 2872.87,357.66 2682.7,229.461 2470.88,139.859 2251.45,47.0508 2018.51,0 1778.52,0" /><path
         id="path16"
         style="fill:#cf181f;fill-opacity:1;fill-rule:nonzero;stroke:none"
         d="m 2830.55,2252.87 c -22.35,0 -40.53,-18.2 -40.53,-40.57 0,-22.37 18.18,-40.56 40.53,-40.56 22.35,0 40.53,18.19 40.53,40.56 0,22.37 -18.18,40.57 -40.53,40.57 z m 0,-88.82 c -26.59,0 -48.22,21.64 -48.22,48.25 0,26.61 21.63,48.25 48.22,48.25 26.59,0 48.22,-21.64 48.22,-48.25 0,-26.61 -21.63,-48.25 -48.22,-48.25" /><path
         id="path18"
         style="fill:#cf181f;fill-opacity:1;fill-rule:nonzero;stroke:none"
         d="m 2818.99,2214.77 h 14.58 c 6.91,0 10.13,2.84 10.13,8.91 0,5.95 -3.2,8.83 -9.77,8.83 h -14.94 z m 35.36,-29.28 h -9.82 l -0.18,0.33 -11.95,21.71 h -13.41 v -22.04 h -8.68 v 54.69 H 2835 c 5.74,0 10.35,-1.86 13.34,-5.39 2.59,-2.98 3.96,-6.72 3.96,-10.83 0,-7.5 -4.16,-13.22 -11.17,-15.45 l 13.22,-23.02" /><path
         id="path20"
         style="fill:#cf181f;fill-opacity:1;fill-rule:nonzero;stroke:none"
         d="m 1286.98,2640.25 c -29.6,0 -53.6,-24.01 -53.6,-53.64 0,-29.61 24,-53.62 53.6,-53.62 29.59,0 53.59,24.01 53.59,53.62 0,29.63 -24,53.64 -53.59,53.64" /><path
         id="path22"
         style="fill:#cf181f;fill-opacity:1;fill-rule:nonzero;stroke:none"
         d="m 1327.8,2509.16 h -81.65 c -5.98,0 -10.82,-4.85 -10.82,-10.83 v -323.45 c 0,-5.98 4.84,-10.83 10.82,-10.83 h 81.65 c 5.98,0 10.82,4.85 10.82,10.83 v 323.45 c 0,5.98 -4.84,10.83 -10.82,10.83" /><path
         id="path24"
         style="fill:#cf181f;fill-opacity:1;fill-rule:nonzero;stroke:none"
         d="m 1609.88,2517.62 c -76.79,0 -99.1,-32.01 -112.41,-45.18 v 25.78 c 0,6.04 -4.8,10.93 -10.73,10.93 h -80.11 c -5.93,0 -10.73,-4.89 -10.73,-10.93 v -323.23 c 0,-6.05 4.8,-10.94 10.73,-10.94 h 81.86 c 5.92,0 10.72,4.89 10.72,10.94 v 182.83 c 0,46.9 28.39,81.75 75.78,81.75 50.79,0 75.66,-35.83 75.66,-81.75 v -182.83 c 0,-6.05 4.8,-10.94 10.72,-10.94 h 81.86 c 5.93,0 10.72,4.89 10.72,10.94 v 208.18 c 0,100.89 -70.32,134.45 -144.07,134.45" /><path
         id="path26"
         style="fill:#cf181f;fill-opacity:1;fill-rule:nonzero;stroke:none"
         d="m 2024.09,2517.62 c -76.79,0 -99.1,-32.01 -112.41,-45.18 v 25.78 c 0,6.04 -4.8,10.93 -10.71,10.93 h -80.13 c -5.92,0 -10.72,-4.89 -10.72,-10.93 v -323.23 c 0,-6.05 4.8,-10.94 10.72,-10.94 h 81.87 c 5.91,0 10.71,4.89 10.71,10.94 v 182.83 c 0,46.9 28.39,81.75 75.78,81.75 50.79,0 75.67,-35.83 75.67,-81.75 v -182.83 c 0,-6.05 4.8,-10.94 10.72,-10.94 h 81.86 c 5.92,0 10.71,4.89 10.71,10.94 v 208.18 c 0,100.89 -70.31,134.45 -144.07,134.45" /><path
         id="path28"
         style="fill:#cf181f;fill-opacity:1;fill-rule:nonzero;stroke:none"
         d="m 2675.69,2532.99 c 29.6,0 53.59,24.01 53.59,53.63 0,29.61 -23.99,53.62 -53.59,53.62 -29.6,0 -53.6,-24.01 -53.6,-53.62 0,-29.62 24,-53.63 53.6,-53.63" /><path
         id="path30"
         style="fill:#cf181f;fill-opacity:1;fill-rule:nonzero;stroke:none"
         d="m 2716.51,2509.16 h -81.65 c -5.97,0 -10.82,-4.85 -10.82,-10.83 v -323.45 c 0,-5.98 4.85,-10.83 10.82,-10.83 h 81.65 c 5.98,0 10.83,4.85 10.83,10.83 v 323.45 c 0,5.98 -4.85,10.83 -10.83,10.83" /><path
         id="path32"
         style="fill:#cf181f;fill-opacity:1;fill-rule:nonzero;stroke:none"
         d="m 1080.94,2350.59 c 21.62,7.48 81.35,27.55 81.35,128.61 0,101.07 -66.58,138.16 -184.048,138.16 H 812.09 c -5.961,0 -10.789,-4.7 -10.789,-10.49 v -432.34 c 0,-5.79 4.828,-10.48 10.789,-10.48 h 81.992 c 5.957,0 10.789,4.69 10.789,10.48 v 166.51 h 64.047 l 113.722,-164.03 c 5.28,-8.08 14.44,-12.96 24.28,-12.96 h 87.25 c 6.81,0 10.93,7.32 7.27,12.9 z m -114.245,62.38 h -61.824 v 132.46 h 61.824 c 50.245,0 92.025,-8.7 92.025,-66.23 0,-57.53 -41.78,-66.23 -92.025,-66.23" /><path
         id="path34"
         style="fill:#cf181f;fill-opacity:1;fill-rule:nonzero;stroke:none"
         d="m 2327.48,2508.07 c -70.04,-19.29 -96.16,-62.84 -105.55,-90.44 -1.71,-5.04 3.72,-9.32 8.55,-9.29 l 92.09,0.56 c 3.39,0.02 7.01,1.01 9.06,3.63 19.36,24.82 48.39,29.83 75.24,28.3 66.51,-3.79 61.13,-57.67 61.13,-62.12 -223.09,20.26 -279,-79.2 -250.66,-152.53 32.49,-84.08 195.83,-93.95 249.02,-35.23 6.51,-18.52 7.96,-26.9 22.61,-26.9 h 69.24 c 6.11,0 11.07,4.9 11.07,10.93 v 203.9 c 0,147.29 -165.24,150.27 -241.8,129.19 m 141.51,-207.74 c 0,-49.9 -32.05,-79.45 -86.7,-80.95 -40.51,-1.11 -74.67,16.09 -75.62,42.82 -2.14,60.55 123.75,58.03 151.96,56.21 9.84,-0.64 10.36,-0.64 10.36,-5.65 v -12.43" /><path
         id="path36"
         style="fill:#ffffff;fill-opacity:1;fill-rule:nonzero;stroke:none"
         d="M 2840.74,1923.27 H 741.168 c -10.332,0 -18.719,8.82 -18.719,19.7 0,10.88 8.387,19.7 18.719,19.7 H 2840.74 c 10.33,0 18.72,-8.82 18.72,-19.7 0,-10.88 -8.39,-19.7 -18.72,-19.7" /><path
         id="path38"
         style="fill:#231f20;fill-opacity:1;fill-rule:nonzero;stroke:none"
         d="m 942.551,1332.41 h 118.939 c 53.67,0 87.36,35.79 87.36,87.36 0,50.53 -32.63,83.15 -89.47,83.15 H 942.551 Z M 722.578,1685 h 346.272 c 95.79,0 165.26,-25.26 214.72,-69.46 53.68,-47.36 84.2,-115.78 84.2,-198.92 0,-145.26 -107.36,-254.72 -258.92,-254.72 H 942.551 V 932.461 H 722.578 V 1685" /><path
         id="path40"
         style="fill:#231f20;fill-opacity:1;fill-rule:nonzero;stroke:none"
         d="m 1632.97,1351.35 h 117.88 c 63.16,0 97.9,27.37 97.9,79.99 0,49.47 -31.58,81.05 -94.74,81.05 H 1632.97 Z M 1413,1685 h 373.64 c 153.68,0 284.19,-70.51 284.19,-224.19 0,-86.3 -44.21,-147.35 -123.15,-183.13 v -3.15 c 61.05,-23.17 92.62,-65.26 105.25,-124.2 20,-90.52 3.15,-198.932 30.53,-206.299 v -11.57 h -216.82 c -21.06,14.719 -12.64,107.349 -28.42,174.709 -13.68,57.88 -38.95,87.36 -103.15,87.36 h -102.1 V 932.461 H 1413 V 1685" /><path
         id="path42"
         style="fill:#231f20;fill-opacity:1;fill-rule:nonzero;stroke:none"
         d="m 2641.27,1306.1 c 0,123.13 -53.68,216.81 -158.93,216.81 -105.25,0 -158.93,-93.68 -158.93,-216.81 0,-123.15 53.68,-215.76 158.93,-215.76 105.25,0 158.93,92.61 158.93,215.76 z m -540.99,0 c 0,225.23 147.35,392.59 381,392.59 233.67,0 383.12,-167.36 383.12,-392.59 0,-225.25 -149.45,-391.549 -383.12,-391.549 -233.65,0 -381,166.299 -381,391.549" /></g></g></svg>