<?xml version="1.0" encoding="iso-8859-1"?>
<!-- Uploaded to: SVG Repo, www.svgrepo.com, Generator: SVG Repo Mixer Tools -->
<svg height="800px" width="800px" version="1.1" id="Layer_1" xmlns="http://www.w3.org/2000/svg" xmlns:xlink="http://www.w3.org/1999/xlink" 
	 viewBox="0 0 503.607 503.607" xml:space="preserve">
<g transform="translate(1 1)">
	<g>
		<path style="fill:#FFDD09;" d="M234.016,230.818h33.574v-50.361h-33.574V230.818z"/>
		<path style="fill:#FFDD09;" d="M225.623,180.457h50.361v-33.574h-50.361V180.457z"/>
		<path style="fill:#FFDD09;" d="M385.098,180.457H275.984v-33.574l86.452-26.859c11.751-3.357,22.662,5.036,22.662,16.787V180.457z
			"/>
		<path style="fill:#FFDD09;" d="M116.508,180.457h109.115v-33.574l-86.452-26.859c-11.751-3.357-22.662,5.036-22.662,16.787
			V180.457z"/>
		<path style="fill:#FFDD09;" d="M326.344,247.605v117.508h151.082c9.233,0,16.787-7.554,16.787-16.787v-83.934
			c0-9.233-7.554-16.787-16.787-16.787H326.344z"/>
		<path style="fill:#FFDD09;" d="M309.557,381.9H192.049c-9.233,0-16.787-7.554-16.787-16.787V247.605
			c0-9.233,7.554-16.787,16.787-16.787h117.508c9.233,0,16.787,7.554,16.787,16.787v117.508
			C326.344,374.346,318.79,381.9,309.557,381.9"/>
	</g>
	<path style="fill:#FD9808;" d="M309.557,230.818h-25.18c9.233,0,16.787,7.554,16.787,16.787v117.508
		c0,9.233-7.554,16.787-16.787,16.787h25.18c9.233,0,16.787-7.554,16.787-16.787V247.605
		C326.344,238.372,318.79,230.818,309.557,230.818"/>
	<path style="fill:#FFDD09;" d="M175.262,247.605H24.18c-9.233,0-16.787,7.554-16.787,16.787v83.934
		c0,9.233,7.554,16.787,16.787,16.787h151.082V247.605z"/>
	<path style="fill:#FFFFFF;" d="M32.574,348.326v-83.934c0-9.233,7.554-16.787,16.787-16.787H24.18
		c-9.233,0-16.787,7.554-16.787,16.787v83.934c0,9.233,7.554,16.787,16.787,16.787h25.18
		C40.128,365.113,32.574,357.559,32.574,348.326"/>
	<path style="fill:#FD9808;" d="M469.033,348.326v-83.934c0-9.233-7.554-16.787-16.787-16.787h25.18
		c9.233,0,16.787,7.554,16.787,16.787v83.934c0,9.233-7.554,16.787-16.787,16.787h-25.18
		C461.479,365.113,469.033,357.559,469.033,348.326"/>
	<path d="M309.557,390.293H192.049c-14.269,0-25.18-10.911-25.18-25.18V247.605c0-14.269,10.911-25.18,25.18-25.18h117.508
		c14.269,0,25.18,10.911,25.18,25.18v117.508C334.738,379.382,323.826,390.293,309.557,390.293z M192.049,239.211
		c-5.036,0-8.393,3.357-8.393,8.393v117.508c0,5.036,3.357,8.393,8.393,8.393h117.508c5.036,0,8.393-3.357,8.393-8.393V247.605
		c0-5.036-3.357-8.393-8.393-8.393H192.049z"/>
	<path d="M175.262,373.506H24.18C9.911,373.506-1,362.595-1,348.326v-83.934c0-14.269,10.911-25.18,25.18-25.18h151.082
		c5.036,0,8.393,3.357,8.393,8.393v117.508C183.656,370.149,180.298,373.506,175.262,373.506z M24.18,255.998
		c-5.036,0-8.393,3.357-8.393,8.393v83.934c0,5.036,3.357,8.393,8.393,8.393h142.689V255.998H24.18z"/>
	<path d="M477.426,373.506H326.344c-5.036,0-8.393-3.357-8.393-8.393V247.605c0-5.036,3.357-8.393,8.393-8.393h151.082
		c14.269,0,25.18,10.911,25.18,25.18v83.934C502.607,362.595,491.695,373.506,477.426,373.506z M334.738,356.719h142.689
		c5.036,0,8.393-3.357,8.393-8.393v-83.934c0-5.036-3.357-8.393-8.393-8.393H334.738V356.719z"/>
	<path d="M40.967,289.572H7.393c-5.036,0-8.393-3.357-8.393-8.393s3.357-8.393,8.393-8.393h33.574c5.036,0,8.393,3.357,8.393,8.393
		S46.003,289.572,40.967,289.572z"/>
	<path d="M175.262,289.572h-67.148c-5.036,0-8.393-3.357-8.393-8.393s3.357-8.393,8.393-8.393h67.148
		c5.036,0,8.393,3.357,8.393,8.393S180.298,289.572,175.262,289.572z"/>
	<path d="M82.934,281.178c0-5.036-3.357-8.393-8.393-8.393c-5.036,0-8.393,3.357-8.393,8.393s3.357,8.393,8.393,8.393
		C79.577,289.572,82.934,286.214,82.934,281.178"/>
	<path d="M410.279,289.572h-83.934c-5.036,0-8.393-3.357-8.393-8.393s3.357-8.393,8.393-8.393h83.934
		c5.036,0,8.393,3.357,8.393,8.393S415.315,289.572,410.279,289.572z"/>
	<path d="M452.246,281.178c0-5.036-3.357-8.393-8.393-8.393c-5.036,0-8.393,3.357-8.393,8.393s3.357,8.393,8.393,8.393
		C448.888,289.572,452.246,286.214,452.246,281.178"/>
	<path d="M494.213,289.572h-16.787c-5.036,0-8.393-3.357-8.393-8.393s3.357-8.393,8.393-8.393h16.787
		c5.036,0,8.393,3.357,8.393,8.393S499.249,289.572,494.213,289.572z"/>
	<path d="M267.59,239.211h-33.574c-5.036,0-8.393-3.357-8.393-8.393v-50.361c0-5.036,3.357-8.393,8.393-8.393h33.574
		c5.036,0,8.393,3.357,8.393,8.393v50.361C275.984,235.854,272.626,239.211,267.59,239.211z M242.41,222.424h16.787v-33.574H242.41
		V222.424z"/>
	<path d="M275.984,188.851h-50.361c-5.036,0-8.393-3.357-8.393-8.393v-33.574c0-5.036,3.357-8.393,8.393-8.393h50.361
		c5.036,0,8.393,3.357,8.393,8.393v33.574C284.377,185.493,281.02,188.851,275.984,188.851z M234.016,172.064h33.574v-16.787
		h-33.574V172.064z"/>
	<path d="M385.098,188.851H275.984c-5.036,0-8.393-3.357-8.393-8.393v-33.574c0-3.357,2.518-6.715,5.875-8.393l86.452-26.02
		c8.393-2.518,16.787-0.839,23.502,4.197c6.715,4.197,10.072,12.59,10.072,20.984v42.807
		C393.492,185.493,390.134,188.851,385.098,188.851z M284.377,172.064h92.328v-34.413c0-3.357-1.679-5.875-4.197-7.554
		c-2.518-1.679-5.036-2.518-8.393-1.679l-79.738,24.341V172.064z"/>
	<path d="M225.623,188.851H116.508c-5.036,0-8.393-3.357-8.393-8.393v-42.807c0-8.393,4.197-15.948,10.911-20.984
		c6.715-5.036,15.108-6.715,23.502-4.197l85.613,26.02c3.357,1.679,5.875,5.036,5.875,8.393v33.574
		C234.016,185.493,230.659,188.851,225.623,188.851z M124.902,172.064h92.328v-19.305l-80.577-24.341
		c-2.518-0.839-5.875,0-8.393,1.679c-2.518,1.679-3.357,4.197-3.357,7.554V172.064z"/>
</g>
</svg>