<?xml version="1.0" encoding="iso-8859-1"?>
<!-- Uploaded to: SVG Repo, www.svgrepo.com, Generator: SVG Repo Mixer Tools -->
<svg height="800px" width="800px" version="1.1" id="Layer_1" xmlns="http://www.w3.org/2000/svg" xmlns:xlink="http://www.w3.org/1999/xlink" 
	 viewBox="0 0 503.607 503.607" xml:space="preserve">
<g transform="translate(1 1)">
	<path style="fill:#54C9FD;" d="M200.443,378.384L200.443,378.384c-13.43,13.43-36.092,13.43-49.521,0
		c-13.43-13.43-13.43-35.252,0-53.718l24.341-35.252l24.341,35.252C213.872,346.488,213.872,364.115,200.443,378.384"/>
	<path style="fill:#FFDD09;" d="M57.754,255.839h386.098V138.331H57.754V255.839z"/>
	<path style="fill:#FCC309;" d="M49.361,281.02H15.787c-5.036,0-8.393-3.357-8.393-8.393V121.544c0-5.036,3.357-8.393,8.393-8.393
		h33.574c5.036,0,8.393,3.357,8.393,8.393v151.082C57.754,277.662,54.397,281.02,49.361,281.02"/>
	<path style="fill:#FFFFFF;" d="M19.144,113.151h21.823c-5.875,0-8.393,4.197-8.393,8.393v151.082c0,5.036,2.518,8.393,8.393,8.393
		H19.144c-6.715,0-11.751-3.357-11.751-8.393V121.544C7.393,117.348,12.43,113.151,19.144,113.151"/>
	<path style="fill:#FCC309;" d="M452.246,281.02h33.574c5.036,0,8.393-3.357,8.393-8.393V121.544c0-5.036-3.357-8.393-8.393-8.393
		h-33.574c-5.036,0-8.393,3.357-8.393,8.393v151.082C443.852,277.662,448.049,281.02,452.246,281.02"/>
	<path style="fill:#FD9808;" d="M483.302,113.151h-22.662c5.875,0,8.393,3.357,8.393,8.393v151.082c0,5.036-2.518,8.393-8.393,8.393
		h22.662c5.875,0,10.911-3.357,10.911-8.393V121.544C494.213,117.348,489.177,113.151,483.302,113.151"/>
	<path d="M443.852,264.233H57.754c-5.036,0-8.393-3.357-8.393-8.393V138.331c0-5.036,3.357-8.393,8.393-8.393h386.098
		c5.036,0,8.393,3.357,8.393,8.393v117.508C452.246,260.875,448.888,264.233,443.852,264.233z M66.148,247.446h369.311V146.725
		H66.148V247.446z"/>
	<path d="M49.361,289.413H15.787C6.554,289.413-1,281.859-1,272.626V121.544c0-9.233,7.554-16.787,16.787-16.787h33.574
		c9.233,0,16.787,7.554,16.787,16.787v151.082C66.148,281.859,58.593,289.413,49.361,289.413z M49.361,272.626v8.393V272.626
		L49.361,272.626z M15.787,121.544v151.082h33.574V121.544H15.787z"/>
	<path d="M485.82,289.413h-33.574c-9.233,0-16.787-7.554-16.787-16.787V121.544c0-9.233,7.554-16.787,16.787-16.787h33.574
		c9.233,0,16.787,7.554,16.787,16.787v151.082C502.607,281.859,495.052,289.413,485.82,289.413z M485.82,272.626v8.393V272.626
		L485.82,272.626z M452.246,121.544v151.082h33.574V121.544H452.246z"/>
	<path d="M175.262,264.233c-5.036,0-8.393-3.357-8.393-8.393v-33.574c0-5.036,3.357-8.393,8.393-8.393s8.393,3.357,8.393,8.393
		v33.574C183.656,260.875,180.298,264.233,175.262,264.233z"/>
	<path d="M208.836,230.659c-5.036,0-8.393-3.357-8.393-8.393v-33.574c0-5.036,3.357-8.393,8.393-8.393
		c5.036,0,8.393,3.357,8.393,8.393v33.574C217.229,227.302,213.872,230.659,208.836,230.659z"/>
	<path d="M208.836,230.659h-33.574c-5.036,0-8.393-3.357-8.393-8.393s3.357-8.393,8.393-8.393h33.574
		c5.036,0,8.393,3.357,8.393,8.393S213.872,230.659,208.836,230.659z"/>
	<path d="M242.41,197.085h-33.574c-5.036,0-8.393-3.357-8.393-8.393c0-5.036,3.357-8.393,8.393-8.393h33.574
		c5.036,0,8.393,3.357,8.393,8.393C250.803,193.728,247.446,197.085,242.41,197.085z"/>
	<path d="M175.262,396.849c-11.751,0-22.662-4.197-30.216-12.59c-16.787-16.787-16.787-42.807-0.839-64.63l24.341-34.413
		c3.357-4.197,10.911-4.197,13.43,0l24.341,35.252c20.144,32.734,10.911,52.879-0.839,64.63
		C197.925,391.813,187.013,396.849,175.262,396.849z M175.262,303.682l-17.626,25.18c-10.911,15.108-11.751,31.895-0.839,42.807
		c10.072,10.072,27.698,10.072,37.77,0c4.197-4.197,15.948-15.948-0.839-43.646L175.262,303.682z"/>
	<path d="M91.328,180.298H57.754c-4.197,0-8.393-3.357-8.393-8.393c0-5.036,3.357-8.393,8.393-8.393h33.574
		c5.036,0,8.393,3.357,8.393,8.393C99.721,176.941,96.364,180.298,91.328,180.298z"/>
	<path d="M133.295,171.905c0-5.036-3.357-8.393-8.393-8.393c-5.036,0-8.393,3.357-8.393,8.393c0,5.036,3.357,8.393,8.393,8.393
		C129.938,180.298,133.295,176.941,133.295,171.905"/>
	<path d="M351.525,180.298h-50.361c-5.036,0-8.393-3.357-8.393-8.393c0-5.036,3.357-8.393,8.393-8.393h50.361
		c5.036,0,8.393,3.357,8.393,8.393C359.918,176.941,356.561,180.298,351.525,180.298z"/>
	<path d="M443.852,180.298h-41.967c-5.036,0-8.393-3.357-8.393-8.393c0-5.036,3.357-8.393,8.393-8.393h41.967
		c5.036,0,8.393,3.357,8.393,8.393C452.246,176.941,448.888,180.298,443.852,180.298z"/>
</g>
</svg>