<?xml version="1.0" encoding="iso-8859-1"?>
<!-- Uploaded to: SVG Repo, www.svgrepo.com, Generator: SVG Repo Mixer Tools -->
<svg height="800px" width="800px" version="1.1" id="Layer_1" xmlns="http://www.w3.org/2000/svg" xmlns:xlink="http://www.w3.org/1999/xlink" 
	 viewBox="0 0 503.607 503.607" xml:space="preserve">
<g transform="translate(1 1)">
	<g>
		<path style="fill:#FFDD09;" d="M217.229,225.623h67.148v-33.574h-67.148V225.623z"/>
		<path style="fill:#FFDD09;" d="M494.213,158.475H343.131l-41.967,33.574h-83.934v-33.574h67.148l41.967-33.574h167.869V158.475z"
			/>
		<path style="fill:#FFDD09;" d="M267.59,158.475h-33.574v-16.787c0-9.233,7.554-16.787,16.787-16.787
			c9.233,0,16.787,7.554,16.787,16.787V158.475z"/>
		<path style="fill:#FFDD09;" d="M326.344,242.41v117.508h151.082c9.233,0,16.787-7.554,16.787-16.787v-83.934
			c0-9.233-7.554-16.787-16.787-16.787H326.344z"/>
		<path style="fill:#FFDD09;" d="M309.557,376.705H192.049c-9.233,0-16.787-7.554-16.787-16.787V242.41
			c0-9.233,7.554-16.787,16.787-16.787h117.508c9.233,0,16.787,7.554,16.787,16.787v117.508
			C326.344,369.151,318.79,376.705,309.557,376.705"/>
	</g>
	<path style="fill:#FD9808;" d="M309.557,225.623h-25.18c9.233,0,16.787,7.554,16.787,16.787v117.508
		c0,9.233-7.554,16.787-16.787,16.787h25.18c9.233,0,16.787-7.554,16.787-16.787V242.41
		C326.344,233.177,318.79,225.623,309.557,225.623"/>
	<path style="fill:#FFDD09;" d="M175.262,242.41H24.18c-9.233,0-16.787,7.554-16.787,16.787v83.934
		c0,9.233,7.554,16.787,16.787,16.787h151.082V242.41z"/>
	<path style="fill:#FFFFFF;" d="M32.574,343.131v-83.934c0-9.233,7.554-16.787,16.787-16.787H24.18
		c-9.233,0-16.787,7.554-16.787,16.787v83.934c0,9.233,7.554,16.787,16.787,16.787h25.18
		C40.128,359.918,32.574,352.364,32.574,343.131"/>
	<path style="fill:#FD9808;" d="M469.033,343.131v-83.934c0-9.233-7.554-16.787-16.787-16.787h25.18
		c9.233,0,16.787,7.554,16.787,16.787v83.934c0,9.233-7.554,16.787-16.787,16.787h-25.18
		C461.479,359.918,469.033,352.364,469.033,343.131"/>
	<path d="M309.557,385.098H192.049c-14.269,0-25.18-10.911-25.18-25.18V242.41c0-14.269,10.911-25.18,25.18-25.18h117.508
		c14.269,0,25.18,10.911,25.18,25.18v117.508C334.738,374.187,323.826,385.098,309.557,385.098z M192.049,234.016
		c-5.036,0-8.393,3.357-8.393,8.393v117.508c0,5.036,3.357,8.393,8.393,8.393h117.508c5.036,0,8.393-3.357,8.393-8.393V242.41
		c0-5.036-3.357-8.393-8.393-8.393H192.049z"/>
	<path d="M175.262,368.311H24.18C9.911,368.311-1,357.4-1,343.131v-83.934c0-14.269,10.911-25.18,25.18-25.18h151.082
		c5.036,0,8.393,3.357,8.393,8.393v117.508C183.656,364.954,180.298,368.311,175.262,368.311z M24.18,250.803
		c-5.036,0-8.393,3.357-8.393,8.393v83.934c0,5.036,3.357,8.393,8.393,8.393h142.689V250.803H24.18z"/>
	<path d="M477.426,368.311H326.344c-5.036,0-8.393-3.357-8.393-8.393V242.41c0-5.036,3.357-8.393,8.393-8.393h151.082
		c14.269,0,25.18,10.911,25.18,25.18v83.934C502.607,357.4,491.695,368.311,477.426,368.311z M334.738,351.525h142.689
		c5.036,0,8.393-3.357,8.393-8.393v-83.934c0-5.036-3.357-8.393-8.393-8.393H334.738V351.525z"/>
	<path d="M40.967,284.377H7.393c-5.036,0-8.393-3.357-8.393-8.393s3.357-8.393,8.393-8.393h33.574c5.036,0,8.393,3.357,8.393,8.393
		S46.003,284.377,40.967,284.377z"/>
	<path d="M175.262,284.377h-67.148c-5.036,0-8.393-3.357-8.393-8.393s3.357-8.393,8.393-8.393h67.148
		c5.036,0,8.393,3.357,8.393,8.393S180.298,284.377,175.262,284.377z"/>
	<path d="M82.934,275.984c0-5.036-3.357-8.393-8.393-8.393c-5.036,0-8.393,3.357-8.393,8.393s3.357,8.393,8.393,8.393
		C79.577,284.377,82.934,281.02,82.934,275.984"/>
	<path d="M410.279,284.377h-83.934c-5.036,0-8.393-3.357-8.393-8.393s3.357-8.393,8.393-8.393h83.934
		c5.036,0,8.393,3.357,8.393,8.393S415.315,284.377,410.279,284.377z"/>
	<path d="M452.246,275.984c0-5.036-3.357-8.393-8.393-8.393c-5.036,0-8.393,3.357-8.393,8.393s3.357,8.393,8.393,8.393
		C448.888,284.377,452.246,281.02,452.246,275.984"/>
	<path d="M494.213,284.377h-16.787c-5.036,0-8.393-3.357-8.393-8.393s3.357-8.393,8.393-8.393h16.787
		c5.036,0,8.393,3.357,8.393,8.393S499.249,284.377,494.213,284.377z"/>
	<path d="M284.377,234.016h-67.148c-5.036,0-8.393-3.357-8.393-8.393v-33.574c0-5.036,3.357-8.393,8.393-8.393h67.148
		c5.036,0,8.393,3.357,8.393,8.393v33.574C292.77,230.659,289.413,234.016,284.377,234.016z M225.623,217.229h50.361v-16.787
		h-50.361V217.229z"/>
	<path d="M301.164,200.443h-83.934c-5.036,0-8.393-3.357-8.393-8.393v-33.574c0-5.036,3.357-8.393,8.393-8.393h63.79l39.449-31.895
		c2.518-0.839,4.197-1.679,5.875-1.679h167.869c5.036,0,8.393,3.357,8.393,8.393v33.574c0,5.036-3.357,8.393-8.393,8.393H346.489
		l-39.449,31.895C305.361,199.603,302.843,200.443,301.164,200.443z M225.623,183.656h72.184l39.449-31.895
		c2.518-0.839,4.197-1.679,5.875-1.679H485.82v-16.787H329.702l-39.449,31.895c-1.679,0.839-4.197,1.679-5.875,1.679h-58.754
		V183.656z"/>
	<path d="M267.59,166.869h-33.574c-5.036,0-8.393-3.357-8.393-8.393v-16.787c0-14.269,10.911-25.18,25.18-25.18
		c14.269,0,25.18,10.911,25.18,25.18v16.787C275.984,163.511,272.626,166.869,267.59,166.869z M242.41,150.082h16.787v-8.393
		c0-5.036-3.357-8.393-8.393-8.393s-8.393,3.357-8.393,8.393V150.082z"/>
</g>
</svg>