<?xml version="1.0" encoding="iso-8859-1"?>
<!-- Uploaded to: SVG Repo, www.svgrepo.com, Generator: SVG Repo Mixer Tools -->
<svg height="800px" width="800px" version="1.1" id="Layer_1" xmlns="http://www.w3.org/2000/svg" xmlns:xlink="http://www.w3.org/1999/xlink" 
	 viewBox="0 0 503.607 503.607" xml:space="preserve">
<g transform="translate(1 1)">
	<path style="fill:#FFDD09;" d="M208.836,145.885c0-10.072,4.197-20.144,10.072-26.859l-47.003-8.393
		c-10.911-3.357-21.823,5.036-21.823,15.948v38.61c0,10.911,10.911,19.305,21.823,15.948l47.003-8.393
		C213.033,166.029,208.836,155.957,208.836,145.885"/>
	<path style="fill:#FD9808;" d="M292.77,145.885c0-23.502-18.466-41.967-41.967-41.967s-41.967,18.466-41.967,41.967
		s18.466,41.967,41.967,41.967S292.77,169.387,292.77,145.885"/>
	<path style="fill:#FFDD09;" d="M329.702,113.151l-47.003,8.393c5.875,7.554,10.072,16.787,10.072,26.859
		s-4.197,20.144-10.072,26.859l47.003,8.393c10.911,3.357,21.823-4.197,21.823-15.948v-38.61
		C351.525,118.187,340.613,109.793,329.702,113.151"/>
	<path style="fill:#FD9808;" d="M329.702,108.115l-8.393,1.679c3.357,2.518,5.036,6.715,5.036,11.751v38.61
		c0,7.554-5.036,14.269-11.751,15.948l15.948,2.518c10.072,3.357,20.984-5.036,20.984-15.948v-38.61
		C351.525,112.311,340.613,104.757,329.702,108.115"/>
	<path style="fill:#FFFFFF;" d="M171.905,113.151l8.393,1.679c-2.518,2.518-5.036,6.715-5.036,11.751v38.61
		c0,7.554,5.036,14.269,11.751,15.948l-15.948,2.518c-10.072,3.357-20.984-4.197-20.984-15.948v-38.61
		C150.082,118.187,160.993,109.793,171.905,113.151"/>
	<path style="fill:#FCC309;" d="M250.803,187.852c-5.875,0-11.751-1.679-16.787-3.357v62.111h33.574v-62.111
		C262.554,186.174,256.679,187.852,250.803,187.852"/>
	<g>
		<path style="fill:#FFDD09;" d="M326.344,263.393v117.508h151.082c9.233,0,16.787-7.554,16.787-16.787V280.18
			c0-9.233-7.554-16.787-16.787-16.787H326.344z"/>
		<path style="fill:#FFDD09;" d="M309.557,397.689H192.049c-9.233,0-16.787-7.554-16.787-16.787V263.393
			c0-9.233,7.554-16.787,16.787-16.787h117.508c9.233,0,16.787,7.554,16.787,16.787v117.508
			C326.344,390.134,318.79,397.689,309.557,397.689"/>
	</g>
	<path style="fill:#FD9808;" d="M309.557,246.607h-25.18c9.233,0,16.787,7.554,16.787,16.787v117.508
		c0,9.233-7.554,16.787-16.787,16.787h25.18c9.233,0,16.787-7.554,16.787-16.787V263.393
		C326.344,254.161,318.79,246.607,309.557,246.607"/>
	<path style="fill:#FFDD09;" d="M175.262,263.393H24.18c-9.233,0-16.787,7.554-16.787,16.787v83.934
		c0,9.233,7.554,16.787,16.787,16.787h151.082V263.393z"/>
	<path style="fill:#FFFFFF;" d="M32.574,364.115V280.18c0-9.233,7.554-16.787,16.787-16.787H24.18
		c-9.233,0-16.787,7.554-16.787,16.787v83.934c0,9.233,7.554,16.787,16.787,16.787h25.18
		C40.128,380.902,32.574,373.348,32.574,364.115"/>
	<path style="fill:#FD9808;" d="M469.033,364.115V280.18c0-9.233-7.554-16.787-16.787-16.787h25.18
		c9.233,0,16.787,7.554,16.787,16.787v83.934c0,9.233-7.554,16.787-16.787,16.787h-25.18
		C461.479,380.902,469.033,373.348,469.033,364.115"/>
	<path d="M309.557,406.082H192.049c-14.269,0-25.18-10.911-25.18-25.18V263.393c0-14.269,10.911-25.18,25.18-25.18h117.508
		c14.269,0,25.18,10.911,25.18,25.18v117.508C334.738,395.17,323.826,406.082,309.557,406.082z M192.049,255
		c-5.036,0-8.393,3.357-8.393,8.393v117.508c0,5.036,3.357,8.393,8.393,8.393h117.508c5.036,0,8.393-3.357,8.393-8.393V263.393
		c0-5.036-3.357-8.393-8.393-8.393H192.049z"/>
	<path d="M175.262,389.295H24.18C9.911,389.295-1,378.384-1,364.115V280.18C-1,265.911,9.911,255,24.18,255h151.082
		c5.036,0,8.393,3.357,8.393,8.393v117.508C183.656,385.938,180.298,389.295,175.262,389.295z M24.18,271.787
		c-5.036,0-8.393,3.357-8.393,8.393v83.934c0,5.036,3.357,8.393,8.393,8.393h142.689V271.787H24.18z"/>
	<path d="M477.426,389.295H326.344c-5.036,0-8.393-3.357-8.393-8.393V263.393c0-5.036,3.357-8.393,8.393-8.393h151.082
		c14.269,0,25.18,10.911,25.18,25.18v83.934C502.607,378.384,491.695,389.295,477.426,389.295z M334.738,372.508h142.689
		c5.036,0,8.393-3.357,8.393-8.393V280.18c0-5.036-3.357-8.393-8.393-8.393H334.738V372.508z"/>
	<path d="M40.967,305.361H7.393c-5.036,0-8.393-3.357-8.393-8.393s3.357-8.393,8.393-8.393h33.574c5.036,0,8.393,3.357,8.393,8.393
		S46.003,305.361,40.967,305.361z"/>
	<path d="M175.262,305.361h-67.148c-5.036,0-8.393-3.357-8.393-8.393s3.357-8.393,8.393-8.393h67.148
		c5.036,0,8.393,3.357,8.393,8.393S180.298,305.361,175.262,305.361z"/>
	<path d="M82.934,296.967c0-5.036-3.357-8.393-8.393-8.393c-5.036,0-8.393,3.357-8.393,8.393s3.357,8.393,8.393,8.393
		C79.577,305.361,82.934,302.003,82.934,296.967"/>
	<path d="M410.279,305.361h-83.934c-5.036,0-8.393-3.357-8.393-8.393s3.357-8.393,8.393-8.393h83.934
		c5.036,0,8.393,3.357,8.393,8.393S415.315,305.361,410.279,305.361z"/>
	<path d="M452.246,296.967c0-5.036-3.357-8.393-8.393-8.393c-5.036,0-8.393,3.357-8.393,8.393s3.357,8.393,8.393,8.393
		C448.888,305.361,452.246,302.003,452.246,296.967"/>
	<path d="M494.213,305.361h-16.787c-5.036,0-8.393-3.357-8.393-8.393s3.357-8.393,8.393-8.393h16.787
		c5.036,0,8.393,3.357,8.393,8.393S499.249,305.361,494.213,305.361z"/>
	<path d="M250.803,196.246c-27.698,0-50.361-22.662-50.361-50.361s22.662-50.361,50.361-50.361s50.361,22.662,50.361,50.361
		S278.502,196.246,250.803,196.246z M250.803,112.311c-18.466,0-33.574,15.108-33.574,33.574s15.108,33.574,33.574,33.574
		s33.574-15.108,33.574-33.574S269.269,112.311,250.803,112.311z"/>
	<path d="M334.738,190.37c-2.518,0-4.197,0-6.715-0.839l-47.003-8.393c-3.357-0.839-5.036-2.518-6.715-5.036
		c-1.679-2.518-0.839-5.875,1.679-8.393c5.036-5.875,8.393-13.43,8.393-21.823c0-7.554-2.518-15.108-8.393-21.823
		c-1.679-2.518-2.518-5.875-1.679-8.393c0.839-2.518,3.357-5.036,6.715-5.036l47.003-8.393c7.554-2.518,15.108-0.839,21.823,4.197
		c6.715,5.036,10.072,11.751,10.072,20.144v38.61c0,8.393-3.357,15.108-10.072,20.144
		C345.649,188.692,340.613,190.37,334.738,190.37z M296.128,166.869l35.252,5.875h0.839c2.518,0.839,5.036,0,7.554-1.679
		c2.518-0.839,3.357-3.357,3.357-5.875v-38.61c0-2.518-0.839-5.036-3.357-6.715c-2.518-1.679-5.036-1.679-7.554-1.679h-0.839
		l-35.252,5.875c3.357,7.554,5.036,14.269,5.036,21.823S299.485,160.154,296.128,166.869z M329.702,110.633L329.702,110.633
		L329.702,110.633z"/>
	<path d="M166.869,190.37c-5.036,0-10.911-1.679-15.108-5.036c-5.875-4.197-10.072-11.751-10.072-20.144v-38.61
		c0-8.393,3.357-15.108,10.072-20.144c6.715-5.036,14.269-5.875,21.823-4.197l47.003,8.393c3.357,0.839,5.036,2.518,6.715,5.036
		c0.839,2.518,0.839,5.875-1.679,8.393c-3.357,4.197-8.393,11.751-8.393,21.823s4.197,17.626,8.393,21.823
		c1.679,2.518,2.518,5.875,1.679,8.393c-0.839,2.518-3.357,5.036-6.715,5.036l-47.003,8.393
		C171.066,190.37,169.387,190.37,166.869,190.37z M166.869,118.187c-1.679,0-3.357,0.839-5.036,1.679
		c-1.679,1.679-3.357,4.197-3.357,6.715v38.61c0,2.518,0.839,5.036,3.357,6.715c2.518,1.679,5.036,1.679,7.554,1.679h0.839
		l35.252-5.875c-3.357-7.554-5.036-14.269-5.036-21.823s1.679-14.269,5.036-20.984l-35.252-5.875h-0.839
		C168.548,118.187,167.708,118.187,166.869,118.187z"/>
	<path d="M267.59,255h-33.574c-5.036,0-8.393-3.357-8.393-8.393v-62.111c0-2.518,1.679-5.875,4.197-6.715
		c2.518-1.679,5.036-1.679,7.554-0.839c8.393,3.357,18.466,3.357,26.859,0c2.518-0.839,5.875-0.839,7.554,0.839
		c2.518,0.839,4.197,3.357,4.197,6.715v62.111C275.984,251.643,272.626,255,267.59,255z M242.41,238.213h16.787v-42.807
		c-5.875,0.839-10.911,0.839-16.787,0V238.213z"/>
</g>
</svg>