<?xml version="1.0" encoding="iso-8859-1"?>
<!-- Uploaded to: SVG Repo, www.svgrepo.com, Generator: SVG Repo Mixer Tools -->
<svg fill="#000000" height="800px" width="800px" version="1.1" id="Layer_1" xmlns="http://www.w3.org/2000/svg" xmlns:xlink="http://www.w3.org/1999/xlink" 
	 viewBox="0 0 512 512" xml:space="preserve">
<g>
	<g>
		<path d="M409.598,119.467c-14.099,0-25.6,11.5-25.6,25.6v102.4h-17.067c0-2.853-1.426-5.518-3.8-7.1l-47.4-31.6v-12.5
			c0-3.673-2.35-6.934-5.835-8.095l-45.365-15.122v-36.516h15.933c10.048,0,18.202-8.149,18.202-18.202V86.468
			c0-10.053-8.154-18.202-18.202-18.202h-15.933V18.202C264.531,8.147,256.384,0,246.33,0h-100.13
			c-10.055,0-18.202,8.147-18.202,18.202v50.065h-15.93c-10.055,0-18.202,8.147-18.202,18.202v31.863
			c0,10.055,8.147,18.202,18.202,18.202h15.93v45.93l-46.479,23.239c-2.891,1.445-4.717,4.4-4.717,7.633v85.333
			c0,3.232,1.826,6.187,4.717,7.632l11.1,5.55c-0.602,12.513,3.604,24.453,12.814,33.669c6.407,6.407,14.298,10.421,22.565,12.048
			v17.899h-15.93c-10.055,0-18.202,8.147-18.202,18.202v31.863c0,10.055,8.147,18.202,18.202,18.202H128v50.065
			c0,10.055,8.147,18.202,18.202,18.202h100.13c10.048,0,18.202-8.149,18.202-18.202v-50.065h15.932
			c10.048,0,18.202-8.149,18.202-18.202v-31.863c0-10.053-8.154-18.202-18.202-18.202h-15.933v-36.516l45.365-15.122
			c3.484-1.161,5.835-4.422,5.835-8.095v-12.5l47.4-31.6c2.374-1.583,3.8-4.247,3.8-7.1h17.067v102.4
			c0,14.099,11.501,25.6,25.6,25.6s25.6-11.5,25.6-25.6V145.067C435.198,130.967,423.697,119.467,409.598,119.467z M145.065,18.202
			c0-0.629,0.506-1.135,1.135-1.135h100.13c0.629,0,1.135,0.506,1.135,1.135v50.065h-102.4V18.202z M110.933,118.332V86.468
			c0-0.629,0.506-1.135,1.135-1.135h24.463h119.467h24.467c0.625,0,1.135,0.51,1.135,1.135v31.863c0,0.625-0.51,1.135-1.135,1.135
			h-24.467H136.531h-24.463C111.439,119.467,110.933,118.961,110.933,118.332z M93.869,293.395v-74.786l34.129-17.065v43.327
			l-23.57,35.214c-0.43,0.599-0.848,1.202-1.256,1.809c-2.814,4.149-5.074,8.433-6.773,12.764L93.869,293.395z M110.141,308.51
			c0.008-0.043,0.023-0.083,0.03-0.126c0.949-5.319,3.161-10.771,6.568-16.059c0.068-0.106,0.137-0.212,0.207-0.317
			c0.462-0.706,0.94-1.41,1.445-2.109l0.172-0.248l17.969-26.84l0.206,0.308l17.754,26.534c6.235,10.017,9.161,18.736,8.931,26.311
			c-0.004,0.143-0.017,0.282-0.023,0.424c-0.014,0.301-0.026,0.603-0.05,0.9c-0.027,0.336-0.067,0.668-0.107,1
			c-0.012,0.1-0.019,0.202-0.032,0.302c-0.067,0.504-0.153,1-0.25,1.493c-0.975,4.978-3.46,9.418-7.411,13.369
			c-0.985,0.985-2.027,1.878-3.116,2.678c-0.003,0.002-0.007,0.005-0.01,0.007c-0.359,0.263-0.722,0.517-1.09,0.76
			c-0.018,0.012-0.036,0.022-0.054,0.034c-0.355,0.233-0.714,0.458-1.077,0.673c-0.024,0.014-0.049,0.027-0.073,0.041
			c-0.359,0.211-0.721,0.414-1.087,0.606c-0.02,0.011-0.041,0.02-0.061,0.03c-0.371,0.194-0.745,0.38-1.123,0.555
			c-0.017,0.008-0.034,0.014-0.05,0.022c-0.382,0.177-0.768,0.345-1.156,0.502c-0.011,0.005-0.023,0.009-0.034,0.013
			c-0.393,0.159-0.79,0.309-1.189,0.449c-0.015,0.005-0.03,0.009-0.044,0.015c-0.395,0.138-0.793,0.266-1.193,0.385
			c-0.026,0.008-0.053,0.014-0.079,0.022c-0.388,0.114-0.778,0.22-1.17,0.316c-0.056,0.014-0.112,0.024-0.167,0.037
			c-0.362,0.086-0.724,0.167-1.089,0.238c-0.12,0.023-0.242,0.041-0.362,0.062c-0.301,0.054-0.602,0.109-0.904,0.153
			c-0.232,0.034-0.466,0.058-0.699,0.086c-0.192,0.023-0.384,0.05-0.576,0.069c-0.866,0.084-1.739,0.127-2.617,0.127
			c-0.008,0-0.016,0.001-0.024,0.001c-6.878-0.005-13.755-2.632-19.004-7.881C111.001,326.948,108.487,318.069,110.141,308.51z
			 M247.466,493.798c0,0.625-0.51,1.135-1.135,1.135h-100.13c-0.629,0-1.135-0.506-1.135-1.135v-50.065h102.4V493.798z
			 M281.6,393.668v31.863c0,0.625-0.51,1.135-1.135,1.135H256H136.533h-24.465c-0.629,0-1.135-0.506-1.135-1.135v-31.863
			c0-0.629,0.506-1.135,1.135-1.135h24.463h119.467h24.467C281.089,392.533,281.6,393.043,281.6,393.668z M145.065,375.467v-17.898
			c0.596-0.117,1.187-0.25,1.777-0.392c0.174-0.042,0.347-0.089,0.52-0.133c0.453-0.115,0.903-0.236,1.352-0.365
			c0.206-0.059,0.412-0.119,0.617-0.182c0.464-0.141,0.925-0.29,1.384-0.446c0.153-0.052,0.306-0.1,0.458-0.153
			c0.586-0.206,1.166-0.426,1.743-0.658c0.189-0.076,0.375-0.157,0.563-0.235c0.407-0.17,0.812-0.345,1.214-0.528
			c0.219-0.099,0.437-0.2,0.655-0.303c0.414-0.196,0.825-0.4,1.233-0.61c0.167-0.086,0.336-0.167,0.503-0.255
			c0.548-0.29,1.09-0.593,1.627-0.907c0.178-0.104,0.354-0.214,0.531-0.321c0.392-0.237,0.782-0.48,1.167-0.729
			c0.186-0.12,0.371-0.241,0.555-0.365c0.455-0.305,0.904-0.618,1.349-0.94c0.086-0.063,0.174-0.122,0.26-0.185
			c0.535-0.394,1.061-0.804,1.581-1.224c0.121-0.098,0.24-0.199,0.36-0.299c0.423-0.35,0.841-0.708,1.252-1.076
			c0.115-0.103,0.231-0.204,0.345-0.309c0.511-0.465,1.016-0.939,1.508-1.431c6.093-6.093,9.983-12.96,11.751-20.426
			c0.692-2.921,1.069-5.931,1.111-9.027c0.149-11.007-3.787-23.051-11.652-35.68l-17.583-26.278l-6.177-9.234v-23.013h25.596
			c4.713,0,8.533-3.821,8.533-8.533v-17.067h17.067c4.713,0,8.533-3.82,8.533-8.533v-25.6c0-4.713-3.82-8.533-8.533-8.533
			s-8.533,3.82-8.533,8.533V179.2h-17.067c-4.713,0-8.533,3.82-8.533,8.533V204.8h-17.062v-17.065c0-0.022-0.004-0.043-0.004-0.065
			v-51.137h102.4V179.2v153.6v42.667H145.065z M298.665,309.583l-34.133,11.378V191.039l34.133,11.378v10.916v85.333V309.583z
			 M349.865,259.966l-34.133,22.756v-53.444l34.133,22.756V259.966z M418.131,366.933c0,4.674-3.859,8.533-8.533,8.533
			s-8.533-3.859-8.533-8.533V145.067c0-4.674,3.859-8.533,8.533-8.533s8.533,3.859,8.533,8.533V366.933z"/>
	</g>
</g>
</svg>